<svg width="135" height="130" viewBox="0 0 135 130" fill="none" xmlns="http://www.w3.org/2000/svg">
<g id="G_BANAADIR">
<g id="Group">
<path id="Vector" d="M114.054 72.5999C114.054 73.3043 114.056 74.0046 114.056 74.7009C116.009 73.5382 119.152 69.4828 119.891 69.4828C120.641 69.4828 118.641 74.8097 114.054 78.0909C114.056 78.4323 114.054 78.7737 114.054 79.1124C114.054 79.4915 114.052 79.9566 114.049 80.4324C116.002 79.2751 119.152 75.2103 119.891 75.2103C120.669 75.2103 118.481 80.9593 113.509 84.192C113.236 84.8023 112.873 85.3843 112.462 85.9354C114.69 85.4461 118.137 84.4676 118.524 84.7889C119.273 85.4112 113.865 88.4315 109.217 89.3308H109.215C108.713 89.7515 108.189 90.1454 107.65 90.5137C109.726 90.9519 113.798 90.5809 114.247 91.0339C114.735 91.5258 109.788 93.327 104.633 92.2947C103.879 92.6818 103.112 93.0421 102.337 93.3862C104.355 94.3607 108.519 95.0072 108.889 95.5825C109.293 96.2143 104.128 97.1821 99.0993 94.7276C98.528 94.9494 97.9554 95.1645 97.3787 95.3688C99.2942 96.6149 102.96 97.8649 103.215 98.4671C103.496 99.1271 98.696 99.2333 94.3019 96.3796C93.4 96.6512 92.4927 96.9012 91.5786 97.1324C93.2588 98.6849 96.6085 100.536 96.7537 101.169C96.9109 101.85 92.3932 101.169 88.6134 97.8098C87.7518 97.9873 86.8875 98.1472 86.0205 98.2924C85.9062 98.3125 85.7933 98.3354 85.6804 98.3596C87.1536 100.013 90.9321 102.192 91.0692 102.873C91.209 103.56 86.7114 102.758 83.0243 99.2978C82.7891 99.4053 82.5539 99.5183 82.3186 99.6325C77.8305 101.957 73.7415 104.998 69.7829 108.175C75.1273 112.463 80.2553 117.011 85.3215 121.626C87.8055 123.907 90.2479 126.191 92.6755 128.544H87.159C86.9036 128.296 86.6496 128.047 86.3942 127.8C80.422 122.013 74.2993 116.358 67.9266 111.02C67.6538 110.796 67.3796 110.573 67.1067 110.347C66.8338 110.573 66.5596 110.796 66.2867 111.02C59.914 116.358 53.7913 122.013 47.8192 127.8C47.5638 128.047 47.3098 128.296 47.0544 128.544H41.5379C43.9655 126.191 46.4078 123.907 48.8918 121.626C53.958 117.011 59.086 112.463 64.4304 108.175C60.4719 104.998 56.3829 101.957 51.8947 99.6325C51.6595 99.5183 51.4243 99.4053 51.189 99.2978C47.502 102.758 43.0044 103.56 43.1442 102.873C43.2813 102.192 47.0597 100.013 48.533 98.3596C48.42 98.3354 48.3071 98.3125 48.1929 98.2924C47.3259 98.1472 46.4616 97.9873 45.6 97.8098C41.8202 101.169 37.3024 101.85 37.4597 101.169C37.6049 100.536 40.9545 98.6849 42.6347 97.1324C41.7207 96.9012 40.8134 96.6512 39.9114 96.3796C35.5174 99.2333 30.7173 99.1271 30.9983 98.4671C31.2537 97.8649 34.9192 96.6149 36.8346 95.3688C36.258 95.1645 35.6854 94.9494 35.1141 94.7276C30.0856 97.1821 24.9199 96.2143 25.3245 95.5825C25.6942 95.0072 29.8584 94.3607 31.876 93.3862C31.1018 93.0421 30.3329 92.6818 29.5802 92.2947C24.4253 93.327 19.4787 91.5258 19.9667 91.0339C20.4156 90.5809 24.4871 90.9519 26.5638 90.5137C26.0248 90.1454 25.5006 89.7515 24.9979 89.3308H24.9965C20.3484 88.4315 14.9408 85.4112 15.6895 84.7889C16.0766 84.4676 19.5231 85.4461 21.7517 85.9354C21.3404 85.3843 20.9775 84.8023 20.7046 84.192C15.7325 80.9593 13.5442 75.2103 14.3225 75.2103C15.0618 75.2103 18.2112 79.2751 20.1643 80.4324C20.1616 79.9566 20.1589 79.4915 20.1589 79.1124C20.1589 78.7737 20.1575 78.4323 20.1589 78.0909C15.5726 74.8097 13.5724 69.4828 14.3225 69.4828C15.0618 69.4828 18.2045 73.5382 20.1575 74.7009C20.1575 74.0046 20.1589 73.3043 20.1589 72.5999C15.5726 69.3188 13.5724 63.9919 14.3225 63.9919C15.0618 63.9919 18.2098 68.0539 20.1629 69.214C20.1643 68.7247 20.1656 68.2354 20.1669 67.7421V67.7408C15.5753 64.4596 13.5724 59.1273 14.3225 59.1273C15.0631 59.1273 18.2219 63.2055 20.1737 64.3548C20.175 63.6854 20.1764 63.0133 20.179 62.3399C15.5793 59.0588 13.5711 53.717 14.3225 53.717C15.0658 53.717 18.2381 57.8154 20.1885 58.9539C20.1911 58.2429 20.1938 57.5304 20.1965 56.8153C15.5847 53.5356 13.5711 48.1804 14.3225 48.1804C15.0685 48.1804 18.2596 52.307 20.2086 53.428C20.2113 52.7022 20.214 51.9763 20.2167 51.2478C15.59 47.9694 13.5698 42.5981 14.3225 42.5981C15.0712 42.5981 18.2811 46.7529 20.2288 47.8578C20.2315 47.2045 20.2342 46.5513 20.2368 45.898C15.5954 42.6209 13.5684 37.2335 14.3225 37.2335C15.0739 37.2335 18.3066 41.4206 20.2516 42.5067C20.2543 41.7244 20.257 40.942 20.261 40.1611C15.6035 36.8853 13.5671 31.4791 14.3225 31.4791C15.0766 31.4791 18.3308 35.6984 20.2731 36.763C20.2758 36.1689 20.2772 35.5748 20.2799 34.982C15.6089 31.7076 13.5657 26.2866 14.3225 26.2866C15.0793 26.2866 18.351 30.5328 20.292 31.5813C20.2946 30.8971 20.296 30.2129 20.2987 29.5314C15.6142 26.2583 13.5657 20.8225 14.3225 20.8225C15.0806 20.8225 18.3698 25.0916 20.3081 26.1253C20.3108 25.4854 20.3121 24.8497 20.3135 24.2139V24.2125C15.6183 20.9408 13.5644 15.4942 14.3225 15.4942C15.082 15.4942 18.3846 19.7835 20.3215 20.805C20.3229 20.1652 20.3242 19.5267 20.3256 18.8923C15.6223 15.6219 13.5644 10.1659 14.3225 10.1659C15.0833 10.1659 18.394 14.4673 20.3296 15.4808C20.3296 14.8678 20.3309 14.2576 20.3296 13.65C15.6223 10.3783 13.563 4.91965 14.3225 4.91965C15.0833 4.91965 18.394 9.22099 20.3296 10.2358C20.3309 10.1001 20.3309 9.96566 20.3296 9.8299V9.82856C19.9573 9.05835 19.5688 7.91177 19.5688 7.19399C19.5688 4.89142 20.4385 2.29987 20.9103 2.29987C21.4896 2.29987 22.2504 4.89142 22.2504 7.19399C22.2504 8.10668 21.7275 9.37961 21.3202 10.096C21.3202 10.1754 21.3216 10.2547 21.3229 10.334C23.5354 9.54628 27.6567 4.91965 28.5788 4.91965C29.4753 4.91965 26.9967 10.5222 21.3512 13.7764C21.3565 14.3638 21.3606 14.9593 21.3646 15.5641C23.5865 14.7348 27.6634 10.1659 28.5788 10.1659C29.4726 10.1659 27.0088 15.7416 21.3915 18.9985C21.3955 19.6181 21.3995 20.2445 21.4036 20.8776C23.6349 20.0093 27.6688 15.4942 28.5788 15.4942C29.4713 15.4942 27.0195 21.047 21.4264 24.3066V24.308C21.4305 24.9316 21.4345 25.5594 21.4372 26.1925C23.6752 25.2932 27.6728 20.8225 28.5788 20.8225C29.4686 20.8225 27.0289 26.3538 21.4587 29.6161C21.4641 30.2882 21.4681 30.9629 21.4708 31.6431C23.7142 30.7129 27.6768 26.2866 28.5788 26.2866C29.4673 26.2866 27.0383 31.7963 21.491 35.06V35.0613C21.495 35.6474 21.499 36.2334 21.5017 36.8222C23.7505 35.8651 27.6822 31.4791 28.5788 31.4791C29.4659 31.4791 27.0477 36.9673 21.5232 40.235C21.5272 41.0106 21.5326 41.7862 21.5367 42.5631C23.7908 41.5738 27.6862 37.2335 28.5788 37.2335C29.4632 37.2335 27.0572 42.6989 21.5582 45.9679C21.5622 46.6158 21.5662 47.2637 21.5703 47.9116C23.8298 46.8967 27.6903 42.5981 28.5788 42.5981C29.4619 42.5981 27.0679 48.0406 21.5918 51.3137C21.5971 52.0382 21.6012 52.7586 21.6066 53.4778C23.8701 52.4333 27.6956 48.1804 28.5788 48.1804C29.4605 48.1804 27.0787 53.5987 21.6294 56.8731C21.6348 57.5842 21.6402 58.2912 21.6455 58.9956C23.9145 57.9202 27.701 53.717 28.5788 53.717C29.4578 53.717 27.0908 59.1072 21.6711 62.3842C21.6764 63.0563 21.6832 63.7244 21.6885 64.3857C23.9615 63.2781 27.7064 59.1273 28.5788 59.1273C29.4552 59.1273 27.1042 64.4865 21.7181 67.7663C21.7221 68.2583 21.7275 68.7449 21.7316 69.2288C24.0086 68.0916 27.7118 63.9919 28.5788 63.9919C29.4525 63.9919 27.1176 69.3188 21.7665 72.6013C21.7732 73.3083 21.7813 74.0046 21.7894 74.6901C24.0704 73.5126 27.7185 69.4828 28.5788 69.4828C29.4484 69.4828 27.1365 74.7667 21.831 78.0519C21.8418 78.8396 21.8525 79.6071 21.8633 80.3531C21.8633 80.3612 21.8646 80.3692 21.8646 80.3786C24.1497 79.1541 27.7279 75.2103 28.5788 75.2103C29.4229 75.2103 27.2709 80.1864 22.2948 83.4823V83.4837C22.694 84.3533 23.3459 85.1666 24.0449 85.883C25.2546 84.0966 26.4698 80.3813 27.0639 80.1125C27.6123 79.8625 27.6459 85.3803 26.6915 88.1264C27.1136 88.4289 27.5464 88.7192 27.9873 88.9974C28.5519 86.6438 28.3422 82.2202 28.8597 81.6973C29.3826 81.1704 31.0708 85.3843 30.3961 90.3685C31.255 90.8107 32.1314 91.214 33.0159 91.5863C33.1167 89.2327 31.9916 85.1948 32.372 84.6007C32.7511 84.0092 35.3574 87.3387 35.6598 92.5891C36.4032 92.8364 37.1546 93.0609 37.9113 93.2679C37.6277 90.9317 35.8185 87.1075 36.0954 86.4543C36.3723 85.801 39.5741 88.7192 40.722 93.9601C41.5352 94.1429 42.3511 94.315 43.1657 94.4844C43.1926 94.4897 43.2194 94.4951 43.2463 94.5005C42.4385 92.2571 40.2354 89.1077 40.3859 88.4517C40.5459 87.7595 44.1994 90.0714 46.2438 95.022C46.9751 95.1349 47.7076 95.2384 48.4389 95.3392C47.4348 93.2195 45.6067 90.675 45.7263 90.0835C45.8634 89.4007 49.4322 91.5097 51.6245 96.1968C52.1703 96.4105 52.7039 96.6485 53.2228 96.8931C56.3547 98.3999 59.1949 100.284 62.0082 102.263C63.7342 103.498 65.4318 104.767 67.1067 106.064C68.7815 104.767 70.4792 103.498 72.2051 102.263C75.0185 100.284 77.8587 98.3999 80.9906 96.8931C81.5095 96.6485 82.0431 96.4105 82.5888 96.1968C84.7812 91.5097 88.3499 89.4007 88.487 90.0835C88.6067 90.675 86.7786 93.2195 85.7745 95.3392C86.5057 95.2384 87.2383 95.1349 87.9695 95.022C90.014 90.0714 93.6675 87.7595 93.8274 88.4517C93.978 89.1077 91.7749 92.2571 90.967 94.5005C90.9939 94.4951 91.0208 94.4897 91.0477 94.4844C91.8623 94.315 92.6782 94.1429 93.4914 93.9601C94.6393 88.7192 97.8411 85.801 98.118 86.4543C98.3949 87.1075 96.5857 90.9317 96.302 93.2679C97.0588 93.0609 97.8102 92.8364 98.5535 92.5891C98.856 87.3387 101.462 84.0092 101.841 84.6007C102.222 85.1948 101.097 89.2327 101.198 91.5863C102.082 91.214 102.958 90.8107 103.817 90.3685C103.143 85.3843 104.831 81.1704 105.354 81.6973C105.871 82.2202 105.661 86.6438 106.226 88.9974C106.667 88.7192 107.1 88.4289 107.522 88.1264C106.567 85.3803 106.601 79.8625 107.149 80.1125C107.744 80.3813 108.959 84.0966 110.168 85.883C110.867 85.1666 111.519 84.3533 111.919 83.4837V83.4823C106.942 80.1864 104.79 75.2103 105.635 75.2103C106.485 75.2103 110.064 79.1541 112.349 80.3786C112.349 80.3692 112.35 80.3612 112.35 80.3531C112.361 79.6071 112.372 78.8396 112.382 78.0519C107.077 74.7667 104.765 69.4828 105.635 69.4828C106.495 69.4828 110.143 73.5126 112.424 74.6901C112.432 74.0046 112.44 73.3083 112.447 72.6013C107.096 69.3188 104.761 63.9919 105.635 63.9919C106.502 63.9919 110.205 68.0916 112.482 69.2288C112.486 68.7449 112.491 68.2583 112.495 67.7663C107.109 64.4865 104.758 59.1273 105.635 59.1273C106.507 59.1273 110.252 63.2781 112.525 64.3857C112.53 63.7244 112.537 63.0563 112.542 62.3842C107.123 59.1072 104.756 53.717 105.635 53.717C106.512 53.717 110.299 57.9202 112.568 58.9956C112.573 58.2912 112.579 57.5842 112.584 56.8731C107.135 53.5987 104.753 48.1804 105.635 48.1804C106.518 48.1804 110.343 52.4333 112.607 53.4778C112.612 52.7586 112.616 52.0382 112.622 51.3137C107.145 48.0406 104.751 42.5981 105.635 42.5981C106.523 42.5981 110.384 46.8967 112.643 47.9116C112.647 47.2637 112.651 46.6158 112.655 45.9679C107.156 42.6989 104.75 37.2335 105.635 37.2335C106.527 37.2335 110.423 41.5738 112.677 42.5631C112.681 41.7862 112.686 41.0106 112.69 40.235C107.166 36.9673 104.747 31.4791 105.635 31.4791C106.531 31.4791 110.463 35.8651 112.712 36.8222C112.714 36.2334 112.718 35.6474 112.722 35.0613V35.06C107.175 31.7963 104.746 26.2866 105.635 26.2866C106.537 26.2866 110.499 30.7129 112.743 31.6431C112.745 30.9629 112.749 30.2882 112.755 29.6161C107.184 26.3538 104.745 20.8225 105.635 20.8225C106.541 20.8225 110.538 25.2932 112.776 26.1925C112.779 25.5594 112.783 24.9316 112.787 24.308V24.3066C107.194 21.047 104.742 15.4942 105.635 15.4942C106.545 15.4942 110.578 20.0093 112.81 20.8776C112.814 20.2445 112.818 19.6181 112.822 18.9985C107.205 15.7416 104.741 10.1659 105.635 10.1659C106.55 10.1659 110.627 14.7348 112.849 15.5641C112.853 14.9593 112.857 14.3638 112.862 13.7764C107.217 10.5222 104.738 4.91965 105.635 4.91965C106.557 4.91965 110.678 9.54628 112.89 10.334C112.892 10.2547 112.893 10.1754 112.893 10.096C112.486 9.37961 111.963 8.10668 111.963 7.19399C111.963 4.89142 112.724 2.29987 113.303 2.29987C113.775 2.29987 114.645 4.89142 114.645 7.19399C114.645 7.91177 114.256 9.05835 113.884 9.82856V9.8299C113.882 9.96566 113.882 10.1001 113.884 10.2358C115.819 9.22099 119.13 4.91965 119.891 4.91965C120.65 4.91965 118.59 10.3797 113.882 13.65C113.882 14.2576 113.884 14.8678 113.884 15.4808C115.819 14.4673 119.13 10.1659 119.891 10.1659C120.649 10.1659 118.591 15.6219 113.888 18.8923C113.889 19.5267 113.89 20.1652 113.892 20.805C115.829 19.7835 119.131 15.4942 119.891 15.4942C120.649 15.4942 118.595 20.9408 113.9 24.2125V24.2139C113.901 24.8497 113.903 25.4854 113.905 26.1253C115.844 25.0916 119.133 20.8225 119.891 20.8225C120.648 20.8225 118.599 26.2583 113.915 29.5314C113.917 30.2129 113.919 30.8971 113.921 31.5813C115.862 30.5328 119.134 26.2866 119.891 26.2866C120.648 26.2866 118.604 31.7076 113.934 34.982C113.936 35.5748 113.938 36.1689 113.94 36.763C115.883 35.6984 119.137 31.4791 119.891 31.4791C120.646 31.4791 118.61 36.8853 113.952 40.1611C113.956 40.942 113.959 41.7244 113.962 42.5067C115.907 41.4206 119.139 37.2335 119.891 37.2335C120.645 37.2335 118.618 42.6209 113.977 45.898C113.979 46.5513 113.982 47.2045 113.985 47.8578C115.932 46.7529 119.142 42.5981 119.891 42.5981C120.644 42.5981 118.623 47.9694 113.997 51.2478C113.999 51.9763 114.002 52.7022 114.005 53.428C115.954 52.307 119.145 48.1804 119.891 48.1804C120.642 48.1804 118.629 53.5356 114.017 56.8153C114.02 57.5304 114.022 58.2429 114.025 58.9539C115.975 57.8154 119.148 53.717 119.891 53.717C120.642 53.717 118.634 59.0588 114.034 62.3399C114.037 63.0133 114.038 63.6854 114.04 64.3548C115.991 63.2055 119.15 59.1273 119.891 59.1273C120.641 59.1273 118.638 64.4596 114.046 67.7408V67.7421C114.048 68.2354 114.049 68.7247 114.05 69.214C116.004 68.0539 119.152 63.9919 119.891 63.9919C120.641 63.9919 118.641 69.3188 114.054 72.5999Z" fill="#349847"/>
</g>
<path id="Vector_2" d="M67.1067 94.1416C67.1067 94.1416 67.5395 94.1416 67.9118 94.0919C67.9763 94.0838 68.018 94.1577 67.975 94.2075C67.7667 94.444 67.3459 94.8876 67.1067 94.9172C66.8674 94.8876 66.448 94.444 66.2383 94.2075C66.1953 94.1577 66.237 94.0838 66.3015 94.0919C66.6738 94.1416 67.1067 94.1416 67.1067 94.1416Z" fill="#2B378D"/>
<path id="Vector_3" d="M67.1067 0L68.6874 4.80675L73.9082 4.94117L69.666 7.81366L71.3099 12.9376L67.1067 9.67264L62.9034 12.9376L64.5474 7.81366L60.3052 4.94117L65.5259 4.80675L67.1067 0Z" fill="#538FC4"/>
<path id="Vector_4" d="M119.178 130C117.642 130 116.407 129.645 115.368 129.058C110.433 126.273 109.949 118.256 102.651 118.256H31.5628C24.2639 118.256 23.78 126.273 18.8456 129.058C17.8065 129.645 16.5713 130 15.0349 130C-1.34922 130 0.0285579 129.058 0.0285579 129.058C0.0285579 129.058 12.032 128.996 15.9771 125.578C19.0082 122.95 18.6587 109.621 31.5628 107.746H102.651C115.555 109.621 115.205 122.95 118.236 125.578C122.181 128.996 134.185 129.058 134.185 129.058C134.185 129.058 135.562 130 119.178 130Z" fill="#538FC4"/>
<g id="Group_2">
<g id="Group_3">
<g id="Group_4">
<path id="Vector_5" d="M97.6851 84.8157C89.733 85.3884 81.7554 85.0295 73.8073 85.4031C72.8812 85.4623 71.8838 85.5564 70.9603 85.6357C69.6982 85.7378 68.3768 85.8561 67.1066 85.8978C65.8364 85.8534 64.5164 85.7378 63.2529 85.6343C62.3321 85.555 61.3294 85.4609 60.4059 85.4018C52.4565 85.0281 44.4802 85.3857 36.5281 84.8157C36.5133 84.8144 36.5026 84.8023 36.5039 84.7862C36.5052 84.7714 36.5173 84.7606 36.5321 84.762C37.8037 84.8426 39.0793 84.844 40.3536 84.8534C46.315 84.8816 53.5345 84.6813 59.4771 84.8668C62.0243 84.9515 64.5621 85.2862 67.1066 85.3588C70.2883 85.2445 73.4605 84.8211 76.6489 84.8157C81.8495 84.7311 88.6483 84.8709 93.8596 84.852C95.1339 84.8413 96.4095 84.8413 97.6811 84.7606C97.6959 84.7593 97.7093 84.7714 97.7093 84.7862C97.7107 84.8023 97.6986 84.8157 97.6851 84.8157Z" fill="#2A3A8D"/>
</g>
<g id="Group_5">
<path id="Vector_6" d="M96.0519 85.5671C93.6593 85.9448 91.2264 85.9475 88.8122 86.0147C83.9947 86.0765 79.153 85.9663 74.3503 86.2123C72.0988 86.3225 69.8326 86.7298 67.5623 86.7594C67.4265 86.758 67.2249 86.7607 67.0918 86.75C67.1026 86.75 67.1133 86.75 67.1241 86.75L67.1093 86.7513C67.0515 86.7567 66.9493 86.7567 66.8902 86.7594C65.7396 86.7634 64.5903 86.6518 63.4491 86.5403C56.2538 85.6921 49.002 86.2607 41.7757 85.9045C40.5673 85.8413 39.3562 85.7727 38.1613 85.5684C38.1478 85.5657 38.1384 85.5536 38.1411 85.5389C38.1438 85.5254 38.1559 85.516 38.1693 85.5187C39.0551 85.6249 39.9934 85.6894 40.8751 85.7123C46.1631 85.8628 52.7939 85.5442 58.0778 85.6719C59.8897 85.7055 61.7003 85.8426 63.4988 86.0523C64.6992 86.1599 65.9022 86.2876 67.1079 86.2472C68.3137 86.2876 69.5167 86.1599 70.717 86.0523C72.5142 85.8426 74.3261 85.7069 76.1381 85.6719C82.1075 85.5079 89.1873 85.9824 95.1473 85.6141L96.0466 85.5174C96.06 85.516 96.0734 85.5254 96.0748 85.5402C96.0748 85.5523 96.0654 85.5644 96.0519 85.5671Z" fill="#2A3A8D"/>
</g>
<g id="Group_6">
<path id="Vector_7" d="M93.4765 86.8521C92.3944 86.9503 91.2586 86.9704 90.1739 86.9771C85.2865 87.0094 80.2351 86.8589 75.3437 87.0134C74.5788 87.0403 73.6513 87.0874 72.8892 87.1452C71.2453 87.2796 69.6014 87.5403 67.944 87.6008C67.6873 87.6102 67.323 87.6183 67.1066 87.6008C67.1362 87.6008 67.0945 87.6022 67.0797 87.6035C67.0421 87.6062 66.9493 87.6076 66.9103 87.6089C65.0379 87.6143 63.1803 87.2917 61.324 87.1438C55.579 86.7621 49.7977 87.0322 44.0393 86.9758C43.2301 86.9718 42.3698 86.957 41.562 86.914C41.2864 86.8978 41.0122 86.8723 40.7367 86.8521C40.7232 86.8508 40.7138 86.84 40.7152 86.8266C40.7165 86.8131 40.7273 86.8037 40.7407 86.8051C41.8375 86.8669 42.9384 86.84 44.0366 86.8212C49.5329 86.711 55.0346 86.3951 60.5322 86.6626C62.7327 86.758 64.9089 87.1855 67.1079 87.1317C69.307 87.1855 71.4819 86.758 73.6836 86.6626C75.8827 86.5457 78.0831 86.547 80.2835 86.5752C84.6803 86.5954 89.0797 86.9287 93.4752 86.8064C93.4886 86.8051 93.4993 86.8158 93.5007 86.8279C93.4993 86.84 93.4886 86.8521 93.4765 86.8521Z" fill="#2A3A8D"/>
</g>
<g id="Group_7">
<path id="Vector_8" d="M83.1761 87.8737C81.8481 87.7043 80.5066 87.6479 79.1692 87.6734C75.4821 87.6962 71.8112 88.1398 68.1362 88.4033C67.8217 88.4194 67.4238 88.4503 67.1066 88.453C66.7907 88.449 66.3888 88.4194 66.0769 88.4019C61.7366 88.0901 57.3963 87.5309 53.0385 87.6976C52.3691 87.7325 51.7024 87.7877 51.037 87.8723C51.0249 87.875 51.0128 87.8656 51.0115 87.8535C51.0102 87.8428 51.0182 87.832 51.029 87.8293C55.0104 87.1304 59.0846 87.4677 63.0915 87.7473C64.429 87.8522 65.7705 87.9745 67.1079 88.0162C68.4454 87.9745 69.7855 87.8522 71.1243 87.7473C73.8019 87.539 76.4889 87.371 79.1759 87.4422C80.5187 87.4771 81.8642 87.578 83.1855 87.8307C83.1976 87.8334 83.2057 87.8441 83.203 87.8562C83.2003 87.8683 83.1882 87.8764 83.1761 87.8737Z" fill="#2A3A8D"/>
</g>
<g id="Group_8">
<path id="Vector_9" d="M80.008 88.4987C77.8802 88.5404 75.6811 88.6385 73.5654 88.8011C71.6916 88.9423 69.8098 89.1372 67.9347 89.2635C67.6793 89.277 67.3661 89.3025 67.1067 89.3052C66.8486 89.3012 66.5313 89.277 66.2786 89.2635C62.7946 89.0001 59.3145 88.6318 55.8197 88.5363L54.2053 88.4974C54.1932 88.4974 54.1838 88.488 54.1838 88.4772C54.1838 88.4665 54.1919 88.4584 54.2026 88.457C58.5107 88.2137 62.812 88.6546 67.1067 88.902C69.2546 88.8173 71.4013 88.5726 73.5506 88.4866C75.7013 88.3858 77.8587 88.3522 80.0107 88.457C80.0214 88.457 80.0308 88.4664 80.0295 88.4785C80.0282 88.4906 80.0187 88.4987 80.008 88.4987Z" fill="#2A3A8D"/>
</g>
<g id="Group_9">
<path id="Vector_10" d="M77.1099 89.3509C75.4499 89.5929 73.7751 89.6802 72.1164 89.8039C70.4509 89.9114 68.8272 90.1144 67.1066 90.1883C65.3861 90.1131 63.7623 89.9101 62.0969 89.8026C60.4382 89.6802 58.7634 89.5929 57.1033 89.3509C57.0912 89.3496 57.0832 89.3388 57.0845 89.3281C57.0859 89.3173 57.0953 89.3106 57.106 89.3106C58.7714 89.406 60.4422 89.4168 62.1104 89.4853C63.7771 89.5364 65.4426 89.7219 67.1066 89.7851C68.7707 89.7219 70.4375 89.5364 72.1029 89.4853C73.771 89.4154 75.4418 89.406 77.1073 89.3106C77.118 89.3106 77.1274 89.3187 77.1288 89.3294C77.1301 89.3402 77.122 89.3496 77.1099 89.3509Z" fill="#2A3A8D"/>
</g>
<g id="Group_10">
<path id="Vector_11" d="M74.755 90.4397C73.4861 90.6655 72.1984 90.7139 70.9362 90.804C69.8555 90.8846 68.2049 91.0298 67.108 91.101C65.8472 91.0231 64.5406 90.8954 63.2798 90.804C62.0176 90.7139 60.7299 90.6669 59.461 90.4411C59.4476 90.4397 59.4382 90.4276 59.4409 90.4155C59.4422 90.4048 59.453 90.3967 59.4637 90.398C60.7366 90.4666 62.0136 90.429 63.2892 90.4612C64.3928 90.4814 65.9897 90.6051 67.1094 90.6655C68.2331 90.6051 69.8192 90.4827 70.9295 90.4612C72.2051 90.429 73.4821 90.4653 74.755 90.398C74.7671 90.398 74.7778 90.4061 74.7778 90.4182C74.7751 90.429 74.7657 90.4384 74.755 90.4397Z" fill="#2A3A8D"/>
</g>
<g id="Group_11">
<path id="Vector_12" d="M72.5437 91.4734C71.6418 91.6871 70.7157 91.7207 69.8272 91.7892C68.9212 91.8659 68.0166 91.9573 67.1079 92.011C66.2114 91.9573 65.2839 91.8618 64.3887 91.7879C63.5002 91.718 62.5727 91.6857 61.6721 91.472C61.6587 91.4707 61.6466 91.4572 61.6506 91.4425C61.6533 91.4317 61.664 91.4236 61.6748 91.425C62.5794 91.468 63.4854 91.4102 64.3927 91.4183C65.1777 91.4183 66.3122 91.5043 67.1079 91.5406C67.9077 91.5029 69.0341 91.4183 69.8232 91.4183C70.7318 91.4115 71.6364 91.4693 72.5411 91.4263C72.5545 91.4263 72.5653 91.4357 72.5653 91.4478C72.5653 91.4626 72.5558 91.472 72.5437 91.4734Z" fill="#2A3A8D"/>
</g>
<g id="Group_12">
<path id="Vector_13" d="M70.9657 92.4277C70.3259 92.628 69.6672 92.6952 69.0354 92.7598C68.3876 92.8296 67.7598 92.8861 67.1066 92.9251C66.4533 92.8861 65.8256 92.8296 65.1777 92.7584C64.5459 92.6939 63.8873 92.6267 63.2475 92.4264C63.2327 92.4237 63.2192 92.4089 63.2246 92.3928C63.2273 92.382 63.238 92.3753 63.2488 92.3753C64.5311 92.3713 65.8269 92.3323 67.1066 92.4197C68.3862 92.3323 69.682 92.3713 70.9643 92.3753C70.9778 92.3753 70.9899 92.3861 70.9899 92.3995C70.9899 92.4156 70.9791 92.425 70.9657 92.4277Z" fill="#2A3A8D"/>
</g>
<g id="Group_13">
<path id="Vector_14" d="M69.2438 93.3808C67.9991 94.0004 66.2167 93.9964 64.9694 93.3808L64.9586 93.3754C64.9371 93.3646 64.9438 93.327 64.9694 93.327C65.956 93.3001 67.1832 93.2974 68.1752 93.3095C68.5314 93.3109 68.8876 93.3162 69.2438 93.327C69.268 93.327 69.2774 93.3633 69.2546 93.3754C69.2546 93.374 69.2438 93.3808 69.2438 93.3808Z" fill="#2A3A8D"/>
</g>
</g>
</g>
<path id="Vector_15" d="M103.481 15.4942V73.6538C103.481 79.3799 98.8573 83.7297 97.1717 84.0213H37.0416L103.481 15.4942Z" fill="#2B378D"/>
<path id="Vector_16" d="M103.481 15.4943L37.0416 84.0213C35.356 83.7297 30.7321 79.3799 30.7321 73.6538V15.4943C43.0218 21.4758 57.3211 18.0495 67.1066 11.58C76.8922 18.0495 91.1915 21.4758 103.481 15.4943Z" fill="#EA2425"/>
<g id="Group_14">
<g id="Group_15">
<path id="Vector_17" d="M41.8511 18.8197L41.6333 20.9395L66.8607 23.3066V22.5162L41.8511 18.8197Z" fill="#FCE6B7"/>
<path id="Vector_18" d="M92.9161 18.8197L93.1339 20.9394L67.9051 23.3065V22.5162L92.9161 18.8197Z" fill="#FCE6B7"/>
</g>
<g id="Group_16">
<path id="Vector_19" d="M41.8511 28.0622L41.6334 25.9425L66.8607 22.9033V23.6937L41.8511 28.0622Z" fill="#FCE6B7"/>
<path id="Vector_20" d="M91.5303 27.8203L93.3288 25.9653L67.9052 22.9033V23.6937L91.5303 27.8203Z" fill="#FCE6B7"/>
</g>
</g>
<g id="Group_17">
<path id="Vector_21" d="M89.7237 77.0666V84.0213H44.4897V77.0666C44.4897 76.8448 44.5058 76.6257 44.5381 76.412C44.5649 76.2359 44.5985 76.0639 44.6469 75.8945C44.823 75.2359 45.1456 74.6364 45.5811 74.1323C45.7451 73.9441 45.9226 73.7707 46.1134 73.6134C46.7546 73.0798 47.5463 72.7209 48.4281 72.612L50.9928 72.2948L51.4135 72.2424H51.4148L52.6044 72.0945L52.6179 71.8512L52.6434 71.3337L52.7281 69.5702L52.7536 69.0527L52.8396 67.2905L52.8652 66.7716L52.9485 65.0094L52.9741 64.4919L53.0614 62.7284L53.087 62.2109L53.173 60.4487L53.1972 59.9298L53.2832 58.1676L53.3088 57.6501L53.3935 55.8865L53.419 55.369L53.5037 53.6068L53.5319 53.0692L53.6125 51.3809L53.6408 50.8083L53.7268 49.0461L53.7618 48.3242C53.7618 48.3229 53.7618 48.3229 53.7618 48.3229L53.8155 47.2019L53.8639 46.2475L53.9486 44.4839L54.0844 41.6854L54.1704 39.9232L54.3075 37.1246L54.3935 35.3624L54.4258 34.6903L54.4997 33.1634V33.162L54.5279 32.5639L54.5911 31.2882C54.5992 31.1216 54.6247 30.9589 54.6637 30.8003C54.7094 30.6202 54.7753 30.4468 54.8599 30.2828C55.0737 29.858 55.411 29.4978 55.8385 29.2532L57.1208 28.5206L58.0281 28.0017L61.1117 26.2395L62.015 25.722L62.812 25.2664C63.1561 25.0701 63.3887 24.726 63.4411 24.3349L63.4935 23.9585L63.5661 23.441L63.7583 22.0619C63.7772 21.9288 63.8108 21.7997 63.8645 21.6788C63.9452 21.4839 64.0635 21.3078 64.218 21.1599C64.2396 21.1371 64.2651 21.1156 64.2906 21.0941L65.3754 20.172L65.7907 19.8211L66.2894 19.3977L66.8526 18.9192C66.8687 18.9044 66.8889 18.891 66.9077 18.8802C67.0287 18.8076 67.1846 18.8076 67.3056 18.8802C67.3244 18.891 67.3446 18.9044 67.3621 18.9192L67.9253 19.3977L69.924 21.0941C69.9496 21.1156 69.9738 21.1371 69.9953 21.1599C70.1499 21.3078 70.2695 21.4839 70.3488 21.6788C70.4026 21.7997 70.4389 21.9288 70.4563 22.0619L70.6472 23.441L70.7171 23.9585V23.9598L70.7709 24.3349C70.8125 24.6306 70.9537 24.8967 71.1674 25.0957L71.1687 25.097C71.2373 25.1615 71.3166 25.218 71.3986 25.2664L71.4981 25.3242L72.1957 25.722L73.103 26.2395L74.0157 26.7611L74.4566 27.0138L76.1852 28.0017L77.3707 28.6806L78.3748 29.2532C78.8023 29.4978 79.1397 29.858 79.3534 30.2828C79.4488 30.4656 79.5187 30.6592 79.5631 30.8608C79.5953 31.0006 79.6142 31.1431 79.6222 31.2882L79.676 32.4012C79.6773 32.4026 79.676 32.4026 79.676 32.4026L79.7096 33.0814L79.7956 34.8436L79.9314 37.6421L80.0174 39.4057L80.1518 42.2042L80.2392 43.9664L80.2768 44.7676C80.2768 44.7689 80.2768 44.7689 80.2768 44.7689L80.3427 46.0849V46.0862L80.3763 46.765L80.461 48.5272L80.4879 49.0877L80.5712 50.7962V50.7975L80.5967 51.3258L80.6841 53.088L80.707 53.6068L80.7943 55.369L80.8199 55.8865L80.9059 57.6501L80.9314 58.1676L81.0161 59.9298L81.0417 60.4487L81.1264 62.2109L81.1519 62.7284L81.2393 64.4919L81.2635 65.0094L81.3495 66.7716L81.375 67.2905L81.461 69.0527L81.4866 69.5702L81.5713 71.3337L81.5968 71.8512L81.6089 72.0945L85.5608 72.5838L85.7866 72.612C85.9304 72.6295 86.0715 72.6537 86.2087 72.686C86.9211 72.8419 87.5649 73.1672 88.0999 73.6134C88.3929 73.8541 88.6524 74.1323 88.8728 74.4388C89.1887 74.8729 89.4253 75.3649 89.5677 75.8945C89.6148 76.0639 89.6497 76.2359 89.6766 76.412C89.7075 76.6257 89.7237 76.8448 89.7237 77.0666Z" fill="#ADACA6"/>
<g id="Group_18">
<path id="Vector_22" d="M67.3057 18.8802H66.9065C67.0288 18.8076 67.1847 18.8076 67.3057 18.8802Z" fill="white"/>
<path id="Vector_23" d="M68.2869 22.0847V23.035C68.2869 23.2595 68.1041 23.441 67.881 23.441H63.5662L63.7584 22.0619C63.7772 21.9288 63.8122 21.7997 63.8646 21.6788H67.881C68.1041 21.6788 68.2869 21.8602 68.2869 22.0847Z" fill="white"/>
<path id="Vector_24" d="M70.6472 23.441H69.1216C68.8971 23.441 68.7157 23.2595 68.7157 23.035V22.0847C68.7157 21.8602 68.8971 21.6788 69.1216 21.6788H70.3502C70.4026 21.7997 70.4389 21.9288 70.4564 22.0619L70.6472 23.441Z" fill="white"/>
<path id="Vector_25" d="M65.3754 20.172V20.754C65.3754 20.9785 65.1926 21.1599 64.9681 21.1599H64.2168C64.2396 21.1371 64.2638 21.1156 64.2893 21.0941L65.3754 20.172Z" fill="white"/>
<path id="Vector_26" d="M69.9954 21.1599H66.1954C65.9723 21.1599 65.7895 20.9784 65.7895 20.754V19.8036C65.7895 19.5792 65.9723 19.3977 66.1954 19.3977H67.924L69.9228 21.094C69.9497 21.1156 69.9739 21.1371 69.9954 21.1599Z" fill="white"/>
<path id="Vector_27" d="M65.3754 24.3658V25.3161C65.3754 25.5392 65.1926 25.722 64.9681 25.722H62.015L62.812 25.2664C63.1548 25.0701 63.3874 24.726 63.4411 24.3348L63.4935 23.9585H64.9681C65.1939 23.9585 65.3754 24.1413 65.3754 24.3658Z" fill="white"/>
<path id="Vector_28" d="M66.1967 25.722H70.7615C70.986 25.722 71.1674 25.5406 71.1674 25.3161V24.3658C71.1674 24.1413 70.986 23.9598 70.7615 23.9598H66.1967C65.9722 23.9598 65.7908 24.1413 65.7908 24.3658V25.3161C65.7908 25.5392 65.9722 25.722 66.1967 25.722Z" fill="white"/>
<path id="Vector_29" d="M72.1958 25.722H71.9054C71.6836 25.722 71.5022 25.5433 71.4981 25.3242L72.1958 25.722Z" fill="white"/>
<path id="Vector_30" d="M62.5379 26.6455V27.5958C62.5379 27.8203 62.3564 28.0018 62.132 28.0018H58.0282L61.1117 26.2395H62.132C62.3564 26.2395 62.5379 26.421 62.5379 26.6455Z" fill="white"/>
<path id="Vector_31" d="M63.3915 28.0018H67.881C68.1055 28.0018 68.2869 27.8203 68.2869 27.5958V26.6455C68.2869 26.421 68.1055 26.2395 67.881 26.2395H63.3915C63.167 26.2395 62.9855 26.421 62.9855 26.6455V27.5958C62.9842 27.8203 63.167 28.0018 63.3915 28.0018Z" fill="white"/>
<path id="Vector_32" d="M69.1203 28.0018H73.6098C73.8343 28.0018 74.0158 27.8203 74.0158 27.5958V26.6455C74.0158 26.421 73.8343 26.2395 73.6098 26.2395H69.1203C68.8958 26.2395 68.7144 26.421 68.7144 26.6455V27.5958C68.7144 27.8203 68.8958 28.0018 69.1203 28.0018Z" fill="white"/>
<path id="Vector_33" d="M76.1852 28.0018H74.8639C74.6394 28.0018 74.4579 27.8203 74.4579 27.5958V27.0138L76.1852 28.0018Z" fill="white"/>
<path id="Vector_34" d="M56.7123 31.2076V32.1579C56.7123 32.381 56.5308 32.5638 56.3063 32.5638H54.528L54.5898 31.2882C54.5979 31.1216 54.6234 30.9589 54.6638 30.8003H56.3063C56.5322 30.8003 56.7123 30.9831 56.7123 31.2076Z" fill="white"/>
<path id="Vector_35" d="M57.6424 32.5639H62.1319C62.3564 32.5639 62.5378 32.3824 62.5378 32.1579V31.2076C62.5378 30.9831 62.3564 30.8017 62.1319 30.8017H57.6424C57.4179 30.8017 57.2364 30.9831 57.2364 31.2076V32.1579C57.2364 32.381 57.4179 32.5639 57.6424 32.5639Z" fill="white"/>
<path id="Vector_36" d="M63.3915 32.5639H67.881C68.1055 32.5639 68.2869 32.3824 68.2869 32.1579V31.2076C68.2869 30.9831 68.1055 30.8017 67.881 30.8017H63.3915C63.167 30.8017 62.9855 30.9831 62.9855 31.2076V32.1579C62.9842 32.381 63.167 32.5639 63.3915 32.5639Z" fill="white"/>
<path id="Vector_37" d="M69.1203 32.5639H73.6098C73.8343 32.5639 74.0158 32.3824 74.0158 32.1579V31.2076C74.0158 30.9831 73.8343 30.8017 73.6098 30.8017H69.1203C68.8958 30.8017 68.7144 30.9831 68.7144 31.2076V32.1579C68.7144 32.381 68.8958 32.5639 69.1203 32.5639Z" fill="white"/>
<path id="Vector_38" d="M74.8626 32.5639H79.3521C79.5766 32.5639 79.7581 32.3824 79.7581 32.1579V31.2076C79.7581 30.9831 79.5766 30.8017 79.3521 30.8017H74.8626C74.6381 30.8017 74.4567 30.9831 74.4567 31.2076V32.1579C74.4567 32.381 74.6381 32.5639 74.8626 32.5639Z" fill="white"/>
<path id="Vector_39" d="M59.6371 28.9265V29.8769C59.6371 30.1013 59.4557 30.2828 59.2312 30.2828H54.8586C55.0737 29.858 55.4111 29.4978 55.8385 29.2532L57.1195 28.5206H59.2312C59.457 28.5206 59.6371 28.702 59.6371 28.9265Z" fill="white"/>
<path id="Vector_40" d="M60.4047 30.2828H64.9695C65.1939 30.2828 65.3754 30.1013 65.3754 29.8769V28.9265C65.3754 28.702 65.1939 28.5206 64.9695 28.5206H60.4047C60.1802 28.5206 59.9987 28.702 59.9987 28.9265V29.8769C59.9987 30.1013 60.1802 30.2828 60.4047 30.2828Z" fill="white"/>
<path id="Vector_41" d="M66.1967 30.2828H70.7615C70.986 30.2828 71.1674 30.1013 71.1674 29.8769V28.9265C71.1674 28.702 70.986 28.5206 70.7615 28.5206H66.1967C65.9722 28.5206 65.7908 28.702 65.7908 28.9265V29.8769C65.7908 30.1013 65.9722 30.2828 66.1967 30.2828Z" fill="white"/>
<path id="Vector_42" d="M71.9054 30.2828H76.4701C76.6946 30.2828 76.8761 30.1013 76.8761 29.8769V28.9265C76.8761 28.702 76.6946 28.5206 76.4701 28.5206H71.9054C71.6809 28.5206 71.4994 28.702 71.4994 28.9265V29.8769C71.4994 30.1013 71.6809 30.2828 71.9054 30.2828Z" fill="white"/>
<path id="Vector_43" d="M79.3534 30.2828H77.6934C77.4689 30.2828 77.2874 30.1013 77.2874 29.8769V28.9265C77.2874 28.8338 77.3183 28.7491 77.3708 28.6805L78.3735 29.2532C78.8023 29.4978 79.1397 29.858 79.3534 30.2828Z" fill="white"/>
<path id="Vector_44" d="M54.7431 34.8436H59.2326C59.4571 34.8436 59.6386 34.6621 59.6386 34.4376V33.4873C59.6386 33.2628 59.4571 33.0814 59.2326 33.0814H54.7431C54.5186 33.0814 54.3372 33.2628 54.3372 33.4873V34.4376C54.3372 34.6621 54.5186 34.8436 54.7431 34.8436Z" fill="white"/>
<path id="Vector_45" d="M60.4047 34.8436H64.9695C65.1939 34.8436 65.3754 34.6621 65.3754 34.4376V33.4873C65.3754 33.2628 65.1939 33.0814 64.9695 33.0814H60.4047C60.1802 33.0814 59.9987 33.2628 59.9987 33.4873V34.4376C59.9987 34.6621 60.1802 34.8436 60.4047 34.8436Z" fill="white"/>
<path id="Vector_46" d="M66.1967 34.8436H70.7615C70.986 34.8436 71.1674 34.6621 71.1674 34.4376V33.4873C71.1674 33.2628 70.986 33.0814 70.7615 33.0814H66.1967C65.9722 33.0814 65.7908 33.2628 65.7908 33.4873V34.4376C65.7908 34.6621 65.9722 34.8436 66.1967 34.8436Z" fill="white"/>
<path id="Vector_47" d="M71.9054 34.8436H76.4701C76.6946 34.8436 76.8761 34.6621 76.8761 34.4376V33.4873C76.8761 33.2628 76.6946 33.0814 76.4701 33.0814H71.9054C71.6809 33.0814 71.4994 33.2628 71.4994 33.4873V34.4376C71.4994 34.6621 71.6809 34.8436 71.9054 34.8436Z" fill="white"/>
<path id="Vector_48" d="M79.7957 34.8436H77.6947C77.4703 34.8436 77.2888 34.6621 77.2888 34.4376V33.4873C77.2888 33.2628 77.4703 33.0814 77.6947 33.0814H79.7096L79.7957 34.8436Z" fill="white"/>
<path id="Vector_49" d="M56.7122 35.7684V36.7187C56.7122 36.9432 56.5308 37.1246 56.3063 37.1246H54.3062L54.3922 35.3624H56.3063C56.5321 35.3624 56.7122 35.5439 56.7122 35.7684Z" fill="white"/>
<path id="Vector_50" d="M57.6424 37.1246H62.1319C62.3564 37.1246 62.5378 36.9432 62.5378 36.7187V35.7684C62.5378 35.5439 62.3564 35.3624 62.1319 35.3624H57.6424C57.4179 35.3624 57.2364 35.5439 57.2364 35.7684V36.7187C57.2364 36.9432 57.4179 37.1246 57.6424 37.1246Z" fill="white"/>
<path id="Vector_51" d="M63.3915 37.1246H67.881C68.1055 37.1246 68.2869 36.9432 68.2869 36.7187V35.7684C68.2869 35.5439 68.1055 35.3624 67.881 35.3624H63.3915C63.167 35.3624 62.9855 35.5439 62.9855 35.7684V36.7187C62.9842 36.9432 63.167 37.1246 63.3915 37.1246Z" fill="white"/>
<path id="Vector_52" d="M69.1203 37.1246H73.6098C73.8343 37.1246 74.0158 36.9432 74.0158 36.7187V35.7684C74.0158 35.5439 73.8343 35.3624 73.6098 35.3624H69.1203C68.8958 35.3624 68.7144 35.5439 68.7144 35.7684V36.7187C68.7144 36.9432 68.8958 37.1246 69.1203 37.1246Z" fill="white"/>
<path id="Vector_53" d="M74.8626 37.1246H79.3521C79.5766 37.1246 79.7581 36.9432 79.7581 36.7187V35.7684C79.7581 35.5439 79.5766 35.3624 79.3521 35.3624H74.8626C74.6381 35.3624 74.4567 35.5439 74.4567 35.7684V36.7187C74.4567 36.9432 74.6381 37.1246 74.8626 37.1246Z" fill="white"/>
<path id="Vector_54" d="M56.7123 40.3291V41.2794C56.7123 41.5039 56.5308 41.6854 56.3063 41.6854H54.0844L54.1691 39.9232H56.3063C56.5321 39.9232 56.7123 40.1046 56.7123 40.3291Z" fill="white"/>
<path id="Vector_55" d="M57.6424 41.6854H62.1319C62.3564 41.6854 62.5378 41.5039 62.5378 41.2794V40.3291C62.5378 40.1046 62.3564 39.9232 62.1319 39.9232H57.6424C57.4179 39.9232 57.2364 40.1046 57.2364 40.3291V41.2794C57.2364 41.5039 57.4179 41.6854 57.6424 41.6854Z" fill="white"/>
<path id="Vector_56" d="M63.3915 41.6854H67.881C68.1055 41.6854 68.2869 41.5039 68.2869 41.2794V40.3291C68.2869 40.1046 68.1055 39.9232 67.881 39.9232H63.3915C63.167 39.9232 62.9855 40.1046 62.9855 40.3291V41.2794C62.9842 41.5039 63.167 41.6854 63.3915 41.6854Z" fill="white"/>
<path id="Vector_57" d="M69.1203 41.6854H73.6098C73.8343 41.6854 74.0158 41.5039 74.0158 41.2794V40.3291C74.0158 40.1046 73.8343 39.9232 73.6098 39.9232H69.1203C68.8958 39.9232 68.7144 40.1046 68.7144 40.3291V41.2794C68.7144 41.5039 68.8958 41.6854 69.1203 41.6854Z" fill="white"/>
<path id="Vector_58" d="M74.8626 41.6854H79.3521C79.5766 41.6854 79.7581 41.5039 79.7581 41.2794V40.3291C79.7581 40.1046 79.5766 39.9232 79.3521 39.9232H74.8626C74.6381 39.9232 74.4567 40.1046 74.4567 40.3291V41.2794C74.4567 41.5039 74.6381 41.6854 74.8626 41.6854Z" fill="white"/>
<path id="Vector_59" d="M54.7431 39.4057H59.2326C59.4571 39.4057 59.6386 39.2242 59.6386 38.9997V38.0494C59.6386 37.8249 59.4571 37.6435 59.2326 37.6435H54.7431C54.5186 37.6435 54.3372 37.8249 54.3372 38.0494V38.9997C54.3372 39.2229 54.5186 39.4057 54.7431 39.4057Z" fill="white"/>
<path id="Vector_60" d="M60.4047 39.4057H64.9695C65.1939 39.4057 65.3754 39.2242 65.3754 38.9997V38.0494C65.3754 37.8249 65.1939 37.6435 64.9695 37.6435H60.4047C60.1802 37.6435 59.9987 37.8249 59.9987 38.0494V38.9997C59.9987 39.2229 60.1802 39.4057 60.4047 39.4057Z" fill="white"/>
<path id="Vector_61" d="M66.1967 39.4057H70.7615C70.986 39.4057 71.1674 39.2242 71.1674 38.9997V38.0494C71.1674 37.8249 70.986 37.6435 70.7615 37.6435H66.1967C65.9722 37.6435 65.7908 37.8249 65.7908 38.0494V38.9997C65.7908 39.2229 65.9722 39.4057 66.1967 39.4057Z" fill="white"/>
<path id="Vector_62" d="M71.9054 39.4057H76.4701C76.6946 39.4057 76.8761 39.2242 76.8761 38.9997V38.0494C76.8761 37.8249 76.6946 37.6435 76.4701 37.6435H71.9054C71.6809 37.6435 71.4994 37.8249 71.4994 38.0494V38.9997C71.4994 39.2229 71.6809 39.4057 71.9054 39.4057Z" fill="white"/>
<path id="Vector_63" d="M80.0175 39.4057H77.6947C77.4703 39.4057 77.2888 39.2229 77.2888 38.9984V38.0481C77.2888 37.8249 77.4703 37.6421 77.6947 37.6421H79.9314L80.0175 39.4057Z" fill="white"/>
<path id="Vector_64" d="M54.7431 43.9664H59.2326C59.4571 43.9664 59.6386 43.785 59.6386 43.5605V42.6102C59.6386 42.3857 59.4571 42.2042 59.2326 42.2042H54.7431C54.5186 42.2042 54.3372 42.3857 54.3372 42.6102V43.5605C54.3372 43.785 54.5186 43.9664 54.7431 43.9664Z" fill="white"/>
<path id="Vector_65" d="M60.4047 43.9664H64.9695C65.1939 43.9664 65.3754 43.785 65.3754 43.5605V42.6102C65.3754 42.3857 65.1939 42.2042 64.9695 42.2042H60.4047C60.1802 42.2042 59.9987 42.3857 59.9987 42.6102V43.5605C59.9987 43.785 60.1802 43.9664 60.4047 43.9664Z" fill="white"/>
<path id="Vector_66" d="M66.1967 43.9664H70.7615C70.986 43.9664 71.1674 43.785 71.1674 43.5605V42.6102C71.1674 42.3857 70.986 42.2042 70.7615 42.2042H66.1967C65.9722 42.2042 65.7908 42.3857 65.7908 42.6102V43.5605C65.7908 43.785 65.9722 43.9664 66.1967 43.9664Z" fill="white"/>
<path id="Vector_67" d="M71.9054 43.9664H76.4701C76.6946 43.9664 76.8761 43.785 76.8761 43.5605V42.6102C76.8761 42.3857 76.6946 42.2042 76.4701 42.2042H71.9054C71.6809 42.2042 71.4994 42.3857 71.4994 42.6102V43.5605C71.4994 43.785 71.6809 43.9664 71.9054 43.9664Z" fill="white"/>
<path id="Vector_68" d="M80.2392 43.9664H77.6947C77.4703 43.9664 77.2888 43.785 77.2888 43.5605V42.6102C77.2888 42.3857 77.4703 42.2042 77.6947 42.2042H80.1532L80.2392 43.9664Z" fill="white"/>
<path id="Vector_69" d="M56.7123 44.8899V45.8402C56.7123 46.0647 56.5308 46.2475 56.3064 46.2475H53.8627L53.9473 44.4839H56.3064C56.5322 44.4839 56.7123 44.6668 56.7123 44.8899Z" fill="white"/>
<path id="Vector_70" d="M57.6424 46.2462H62.1319C62.3564 46.2462 62.5378 46.0647 62.5378 45.8402V44.8899C62.5378 44.6654 62.3564 44.4839 62.1319 44.4839H57.6424C57.4179 44.4839 57.2364 44.6654 57.2364 44.8899V45.8402C57.2364 46.0647 57.4179 46.2462 57.6424 46.2462Z" fill="white"/>
<path id="Vector_71" d="M63.3915 46.2462H67.881C68.1055 46.2462 68.2869 46.0647 68.2869 45.8402V44.8899C68.2869 44.6654 68.1055 44.4839 67.881 44.4839H63.3915C63.167 44.4839 62.9855 44.6654 62.9855 44.8899V45.8402C62.9842 46.0647 63.167 46.2462 63.3915 46.2462Z" fill="white"/>
<path id="Vector_72" d="M69.1203 46.2462H73.6098C73.8343 46.2462 74.0158 46.0647 74.0158 45.8402V44.8899C74.0158 44.6654 73.8343 44.4839 73.6098 44.4839H69.1203C68.8958 44.4839 68.7144 44.6654 68.7144 44.8899V45.8402C68.7144 46.0647 68.8958 46.2462 69.1203 46.2462Z" fill="white"/>
<path id="Vector_73" d="M74.8626 46.2462H79.3521C79.5766 46.2462 79.7581 46.0647 79.7581 45.8402V44.8899C79.7581 44.6654 79.5766 44.4839 79.3521 44.4839H74.8626C74.6381 44.4839 74.4567 44.6654 74.4567 44.8899V45.8402C74.4567 46.0647 74.6381 46.2462 74.8626 46.2462Z" fill="white"/>
<path id="Vector_74" d="M80.3427 46.0848C80.2903 46.0163 80.2594 45.933 80.2594 45.8402V44.8899C80.2594 44.8482 80.2661 44.8079 80.2782 44.7689L80.3427 46.0848Z" fill="white"/>
<path id="Vector_75" d="M56.7122 49.452V50.4023C56.7122 50.6255 56.5307 50.8083 56.3063 50.8083H53.6394L53.7255 49.0461H56.3063C56.5321 49.0461 56.7122 49.2275 56.7122 49.452Z" fill="white"/>
<path id="Vector_76" d="M57.6424 50.8083H62.1319C62.3564 50.8083 62.5378 50.6268 62.5378 50.4023V49.452C62.5378 49.2275 62.3564 49.0461 62.1319 49.0461H57.6424C57.4179 49.0461 57.2364 49.2275 57.2364 49.452V50.4023C57.2364 50.6255 57.4179 50.8083 57.6424 50.8083Z" fill="white"/>
<path id="Vector_77" d="M63.3915 50.8083H67.881C68.1055 50.8083 68.2869 50.6268 68.2869 50.4023V49.452C68.2869 49.2275 68.1055 49.0461 67.881 49.0461H63.3915C63.167 49.0461 62.9855 49.2275 62.9855 49.452V50.4023C62.9842 50.6255 63.167 50.8083 63.3915 50.8083Z" fill="white"/>
<path id="Vector_78" d="M69.1203 50.8083H73.6098C73.8343 50.8083 74.0158 50.6268 74.0158 50.4023V49.452C74.0158 49.2275 73.8343 49.0461 73.6098 49.0461H69.1203C68.8958 49.0461 68.7144 49.2275 68.7144 49.452V50.4023C68.7144 50.6255 68.8958 50.8083 69.1203 50.8083Z" fill="white"/>
<path id="Vector_79" d="M74.8626 50.8083H79.3521C79.5766 50.8083 79.7581 50.6268 79.7581 50.4023V49.452C79.7581 49.2275 79.5766 49.0461 79.3521 49.0461H74.8626C74.6381 49.0461 74.4567 49.2275 74.4567 49.452V50.4023C74.4567 50.6255 74.6381 50.8083 74.8626 50.8083Z" fill="white"/>
<path id="Vector_80" d="M80.5713 50.7962C80.3925 50.7545 80.2581 50.5932 80.2581 50.4023V49.452C80.2581 49.2921 80.3522 49.1523 80.488 49.0877L80.5713 50.7962Z" fill="white"/>
<path id="Vector_81" d="M54.7431 48.5272H59.2326C59.4571 48.5272 59.6386 48.3458 59.6386 48.1213V47.171C59.6386 46.9465 59.4571 46.765 59.2326 46.765H54.7431C54.5186 46.765 54.3372 46.9465 54.3372 47.171V48.1213C54.3372 48.3458 54.5186 48.5272 54.7431 48.5272Z" fill="white"/>
<path id="Vector_82" d="M53.8156 47.2019V48.1213C53.8156 48.1939 53.7954 48.2638 53.7605 48.3229L53.8156 47.2019Z" fill="white"/>
<path id="Vector_83" d="M60.4047 48.5272H64.9695C65.1939 48.5272 65.3754 48.3458 65.3754 48.1213V47.171C65.3754 46.9465 65.1939 46.765 64.9695 46.765H60.4047C60.1802 46.765 59.9987 46.9465 59.9987 47.171V48.1213C59.9987 48.3458 60.1802 48.5272 60.4047 48.5272Z" fill="white"/>
<path id="Vector_84" d="M66.1967 48.5272H70.7615C70.986 48.5272 71.1674 48.3458 71.1674 48.1213V47.171C71.1674 46.9465 70.986 46.765 70.7615 46.765H66.1967C65.9722 46.765 65.7908 46.9465 65.7908 47.171V48.1213C65.7908 48.3458 65.9722 48.5272 66.1967 48.5272Z" fill="white"/>
<path id="Vector_85" d="M71.9054 48.5272H76.4701C76.6946 48.5272 76.8761 48.3458 76.8761 48.1213V47.171C76.8761 46.9465 76.6946 46.765 76.4701 46.765H71.9054C71.6809 46.765 71.4994 46.9465 71.4994 47.171V48.1213C71.4994 48.3458 71.6809 48.5272 71.9054 48.5272Z" fill="white"/>
<path id="Vector_86" d="M80.461 48.5272H77.6947C77.4703 48.5272 77.2888 48.3458 77.2888 48.1213V47.171C77.2888 46.9465 77.4703 46.765 77.6947 46.765H80.3763L80.461 48.5272Z" fill="white"/>
<path id="Vector_87" d="M54.7431 53.088H59.2326C59.4571 53.088 59.6386 52.9065 59.6386 52.682V51.7317C59.6386 51.5072 59.4571 51.3258 59.2326 51.3258H54.7431C54.5186 51.3258 54.3372 51.5072 54.3372 51.7317V52.682C54.3372 52.9065 54.5186 53.088 54.7431 53.088Z" fill="white"/>
<path id="Vector_88" d="M53.8155 51.7317V52.682C53.8155 52.8635 53.6959 53.0181 53.5306 53.0692L53.6126 51.3809C53.7349 51.4508 53.8155 51.5825 53.8155 51.7317Z" fill="white"/>
<path id="Vector_89" d="M60.4047 53.088H64.9695C65.1939 53.088 65.3754 52.9065 65.3754 52.682V51.7317C65.3754 51.5072 65.1939 51.3258 64.9695 51.3258H60.4047C60.1802 51.3258 59.9987 51.5072 59.9987 51.7317V52.682C59.9987 52.9065 60.1802 53.088 60.4047 53.088Z" fill="white"/>
<path id="Vector_90" d="M66.1967 53.088H70.7615C70.986 53.088 71.1674 52.9065 71.1674 52.682V51.7317C71.1674 51.5072 70.986 51.3258 70.7615 51.3258H66.1967C65.9722 51.3258 65.7908 51.5072 65.7908 51.7317V52.682C65.7908 52.9065 65.9722 53.088 66.1967 53.088Z" fill="white"/>
<path id="Vector_91" d="M71.9054 53.088H76.4701C76.6946 53.088 76.8761 52.9065 76.8761 52.682V51.7317C76.8761 51.5072 76.6946 51.3258 76.4701 51.3258H71.9054C71.6809 51.3258 71.4994 51.5072 71.4994 51.7317V52.682C71.4994 52.9065 71.6809 53.088 71.9054 53.088Z" fill="white"/>
<path id="Vector_92" d="M80.6842 53.088H77.6947C77.4703 53.088 77.2888 52.9065 77.2888 52.682V51.7317C77.2888 51.5072 77.4703 51.3258 77.6947 51.3258H80.5981L80.6842 53.088Z" fill="white"/>
<path id="Vector_93" d="M56.7123 54.0128V54.9631C56.7123 55.1876 56.5308 55.369 56.3063 55.369H53.4177L53.5037 53.6068H56.3063C56.5321 53.6068 56.7123 53.7883 56.7123 54.0128Z" fill="white"/>
<path id="Vector_94" d="M57.6424 55.369H62.1319C62.3564 55.369 62.5378 55.1876 62.5378 54.9631V54.0128C62.5378 53.7883 62.3564 53.6068 62.1319 53.6068H57.6424C57.4179 53.6068 57.2364 53.7883 57.2364 54.0128V54.9631C57.2364 55.1876 57.4179 55.369 57.6424 55.369Z" fill="white"/>
<path id="Vector_95" d="M63.3915 55.369H67.881C68.1055 55.369 68.2869 55.1876 68.2869 54.9631V54.0128C68.2869 53.7883 68.1055 53.6068 67.881 53.6068H63.3915C63.167 53.6068 62.9855 53.7883 62.9855 54.0128V54.9631C62.9842 55.1876 63.167 55.369 63.3915 55.369Z" fill="white"/>
<path id="Vector_96" d="M69.1203 55.369H73.6098C73.8343 55.369 74.0158 55.1876 74.0158 54.9631V54.0128C74.0158 53.7883 73.8343 53.6068 73.6098 53.6068H69.1203C68.8958 53.6068 68.7144 53.7883 68.7144 54.0128V54.9631C68.7144 55.1876 68.8958 55.369 69.1203 55.369Z" fill="white"/>
<path id="Vector_97" d="M74.8626 55.369H79.3521C79.5766 55.369 79.7581 55.1876 79.7581 54.9631V54.0128C79.7581 53.7883 79.5766 53.6068 79.3521 53.6068H74.8626C74.6381 53.6068 74.4567 53.7883 74.4567 54.0128V54.9631C74.4567 55.1876 74.6381 55.369 74.8626 55.369Z" fill="white"/>
<path id="Vector_98" d="M80.7944 55.369H80.6667C80.4422 55.369 80.2594 55.1876 80.2594 54.9631V54.0128C80.2594 53.7883 80.4422 53.6068 80.6667 53.6068H80.7083L80.7944 55.369Z" fill="white"/>
<path id="Vector_99" d="M56.7123 58.5735V59.5239C56.7123 59.7483 56.5308 59.9298 56.3064 59.9298H53.1959L53.282 58.1676H56.3064C56.5322 58.1676 56.7123 58.3491 56.7123 58.5735Z" fill="white"/>
<path id="Vector_100" d="M57.6424 59.9298H62.1319C62.3564 59.9298 62.5378 59.7483 62.5378 59.5239V58.5735C62.5378 58.3491 62.3564 58.1676 62.1319 58.1676H57.6424C57.4179 58.1676 57.2364 58.3491 57.2364 58.5735V59.5239C57.2364 59.7483 57.4179 59.9298 57.6424 59.9298Z" fill="white"/>
<path id="Vector_101" d="M63.3915 59.9298H67.881C68.1055 59.9298 68.2869 59.7483 68.2869 59.5239V58.5735C68.2869 58.3491 68.1055 58.1676 67.881 58.1676H63.3915C63.167 58.1676 62.9855 58.3491 62.9855 58.5735V59.5239C62.9842 59.7483 63.167 59.9298 63.3915 59.9298Z" fill="white"/>
<path id="Vector_102" d="M69.1203 59.9298H73.6098C73.8343 59.9298 74.0158 59.7483 74.0158 59.5239V58.5735C74.0158 58.3491 73.8343 58.1676 73.6098 58.1676H69.1203C68.8958 58.1676 68.7144 58.3491 68.7144 58.5735V59.5239C68.7144 59.7483 68.8958 59.9298 69.1203 59.9298Z" fill="white"/>
<path id="Vector_103" d="M74.8626 59.9298H79.3521C79.5766 59.9298 79.7581 59.7483 79.7581 59.5239V58.5735C79.7581 58.3491 79.5766 58.1676 79.3521 58.1676H74.8626C74.6381 58.1676 74.4567 58.3491 74.4567 58.5735V59.5239C74.4567 59.7483 74.6381 59.9298 74.8626 59.9298Z" fill="white"/>
<path id="Vector_104" d="M81.0162 59.9298H80.6667C80.4422 59.9298 80.2594 59.7483 80.2594 59.5239V58.5735C80.2594 58.3491 80.4422 58.1676 80.6667 58.1676H80.9315L81.0162 59.9298Z" fill="white"/>
<path id="Vector_105" d="M54.7431 57.6501H59.2326C59.4571 57.6501 59.6386 57.4686 59.6386 57.2441V56.2938C59.6386 56.0693 59.4571 55.8879 59.2326 55.8879H54.7431C54.5186 55.8879 54.3372 56.0693 54.3372 56.2938V57.2441C54.3372 57.4673 54.5186 57.6501 54.7431 57.6501Z" fill="white"/>
<path id="Vector_106" d="M53.8155 56.2938V57.2441C53.8155 57.4673 53.6327 57.6501 53.4083 57.6501H53.3074L53.3935 55.8865H53.4083C53.6341 55.8865 53.8155 56.0693 53.8155 56.2938Z" fill="white"/>
<path id="Vector_107" d="M60.4047 57.6501H64.9695C65.1939 57.6501 65.3754 57.4686 65.3754 57.2441V56.2938C65.3754 56.0693 65.1939 55.8879 64.9695 55.8879H60.4047C60.1802 55.8879 59.9987 56.0693 59.9987 56.2938V57.2441C59.9987 57.4673 60.1802 57.6501 60.4047 57.6501Z" fill="white"/>
<path id="Vector_108" d="M66.1967 57.6501H70.7615C70.986 57.6501 71.1674 57.4686 71.1674 57.2441V56.2938C71.1674 56.0693 70.986 55.8879 70.7615 55.8879H66.1967C65.9722 55.8879 65.7908 56.0693 65.7908 56.2938V57.2441C65.7908 57.4673 65.9722 57.6501 66.1967 57.6501Z" fill="white"/>
<path id="Vector_109" d="M71.9054 57.6501H76.4701C76.6946 57.6501 76.8761 57.4686 76.8761 57.2441V56.2938C76.8761 56.0693 76.6946 55.8879 76.4701 55.8879H71.9054C71.6809 55.8879 71.4994 56.0693 71.4994 56.2938V57.2441C71.4994 57.4673 71.6809 57.6501 71.9054 57.6501Z" fill="white"/>
<path id="Vector_110" d="M80.9059 57.6501H77.6947C77.4703 57.6501 77.2888 57.4673 77.2888 57.2441V56.2938C77.2888 56.0693 77.4703 55.8865 77.6947 55.8865H80.8199L80.9059 57.6501Z" fill="white"/>
<path id="Vector_111" d="M54.7431 62.2109H59.2326C59.4571 62.2109 59.6386 62.0294 59.6386 61.8049V60.8546C59.6386 60.6301 59.4571 60.4487 59.2326 60.4487H54.7431C54.5186 60.4487 54.3372 60.6301 54.3372 60.8546V61.8049C54.3372 62.0294 54.5186 62.2109 54.7431 62.2109Z" fill="white"/>
<path id="Vector_112" d="M53.8156 60.8546V61.8049C53.8156 62.0294 53.6328 62.2109 53.4083 62.2109H53.0857L53.1717 60.4487H53.4083C53.6341 60.4487 53.8156 60.6301 53.8156 60.8546Z" fill="white"/>
<path id="Vector_113" d="M60.4047 62.2109H64.9695C65.1939 62.2109 65.3754 62.0294 65.3754 61.8049V60.8546C65.3754 60.6301 65.1939 60.4487 64.9695 60.4487H60.4047C60.1802 60.4487 59.9987 60.6301 59.9987 60.8546V61.8049C59.9987 62.0294 60.1802 62.2109 60.4047 62.2109Z" fill="white"/>
<path id="Vector_114" d="M66.1967 62.2109H70.7615C70.986 62.2109 71.1674 62.0294 71.1674 61.8049V60.8546C71.1674 60.6301 70.986 60.4487 70.7615 60.4487H66.1967C65.9722 60.4487 65.7908 60.6301 65.7908 60.8546V61.8049C65.7908 62.0294 65.9722 62.2109 66.1967 62.2109Z" fill="white"/>
<path id="Vector_115" d="M71.9054 62.2109H76.4701C76.6946 62.2109 76.8761 62.0294 76.8761 61.8049V60.8546C76.8761 60.6301 76.6946 60.4487 76.4701 60.4487H71.9054C71.6809 60.4487 71.4994 60.6301 71.4994 60.8546V61.8049C71.4994 62.0294 71.6809 62.2109 71.9054 62.2109Z" fill="white"/>
<path id="Vector_116" d="M81.1264 62.2109H77.6934C77.4689 62.2109 77.2874 62.0294 77.2874 61.8049V60.8546C77.2874 60.6301 77.4689 60.4487 77.6934 60.4487H81.0403L81.1264 62.2109Z" fill="white"/>
<path id="Vector_117" d="M56.7122 63.1356V64.0846C56.7122 64.3091 56.5308 64.4919 56.3063 64.4919H52.9741L53.0601 62.7284H56.3063C56.5321 62.7284 56.7122 62.9112 56.7122 63.1356Z" fill="white"/>
<path id="Vector_118" d="M57.6424 64.4919H62.1319C62.3564 64.4919 62.5378 64.3104 62.5378 64.086V63.1356C62.5378 62.9112 62.3564 62.7297 62.1319 62.7297H57.6424C57.4179 62.7297 57.2364 62.9112 57.2364 63.1356V64.086C57.2364 64.3091 57.4179 64.4919 57.6424 64.4919Z" fill="white"/>
<path id="Vector_119" d="M63.3915 64.4919H67.881C68.1055 64.4919 68.2869 64.3104 68.2869 64.086V63.1356C68.2869 62.9112 68.1055 62.7297 67.881 62.7297H63.3915C63.167 62.7297 62.9855 62.9112 62.9855 63.1356V64.086C62.9842 64.3091 63.167 64.4919 63.3915 64.4919Z" fill="white"/>
<path id="Vector_120" d="M69.1203 64.4919H73.6098C73.8343 64.4919 74.0158 64.3104 74.0158 64.086V63.1356C74.0158 62.9112 73.8343 62.7297 73.6098 62.7297H69.1203C68.8958 62.7297 68.7144 62.9112 68.7144 63.1356V64.086C68.7144 64.3091 68.8958 64.4919 69.1203 64.4919Z" fill="white"/>
<path id="Vector_121" d="M74.8626 64.4919H79.3521C79.5766 64.4919 79.7581 64.3104 79.7581 64.086V63.1356C79.7581 62.9112 79.5766 62.7297 79.3521 62.7297H74.8626C74.6381 62.7297 74.4567 62.9112 74.4567 63.1356V64.086C74.4567 64.3091 74.6381 64.4919 74.8626 64.4919Z" fill="white"/>
<path id="Vector_122" d="M81.2393 64.4919H80.6667C80.4422 64.4919 80.2594 64.3091 80.2594 64.0846V63.1356C80.2594 62.9112 80.4422 62.7284 80.6667 62.7284H81.1533L81.2393 64.4919Z" fill="white"/>
<path id="Vector_123" d="M56.7123 67.6964V68.6467C56.7123 68.8712 56.5308 69.0527 56.3063 69.0527H52.7523L52.8384 67.2905H56.3063C56.5322 67.2905 56.7123 67.4719 56.7123 67.6964Z" fill="white"/>
<path id="Vector_124" d="M57.6424 69.0527H62.1319C62.3564 69.0527 62.5378 68.8712 62.5378 68.6467V67.6964C62.5378 67.4719 62.3564 67.2905 62.1319 67.2905H57.6424C57.4179 67.2905 57.2364 67.4719 57.2364 67.6964V68.6467C57.2364 68.8712 57.4179 69.0527 57.6424 69.0527Z" fill="white"/>
<path id="Vector_125" d="M63.3915 69.0527H67.881C68.1055 69.0527 68.2869 68.8712 68.2869 68.6467V67.6964C68.2869 67.4719 68.1055 67.2905 67.881 67.2905H63.3915C63.167 67.2905 62.9855 67.4719 62.9855 67.6964V68.6467C62.9842 68.8712 63.167 69.0527 63.3915 69.0527Z" fill="white"/>
<path id="Vector_126" d="M69.1203 69.0527H73.6098C73.8343 69.0527 74.0158 68.8712 74.0158 68.6467V67.6964C74.0158 67.4719 73.8343 67.2905 73.6098 67.2905H69.1203C68.8958 67.2905 68.7144 67.4719 68.7144 67.6964V68.6467C68.7144 68.8712 68.8958 69.0527 69.1203 69.0527Z" fill="white"/>
<path id="Vector_127" d="M74.8626 69.0527H79.3521C79.5766 69.0527 79.7581 68.8712 79.7581 68.6467V67.6964C79.7581 67.4719 79.5766 67.2905 79.3521 67.2905H74.8626C74.6381 67.2905 74.4567 67.4719 74.4567 67.6964V68.6467C74.4567 68.8712 74.6381 69.0527 74.8626 69.0527Z" fill="white"/>
<path id="Vector_128" d="M81.4611 69.0527H80.6667C80.4422 69.0527 80.2594 68.8712 80.2594 68.6467V67.6964C80.2594 67.4719 80.4422 67.2905 80.6667 67.2905H81.3751L81.4611 69.0527Z" fill="white"/>
<path id="Vector_129" d="M54.7431 66.7716H59.2326C59.4571 66.7716 59.6386 66.5902 59.6386 66.3657V65.4154C59.6386 65.1909 59.4571 65.0094 59.2326 65.0094H54.7431C54.5186 65.0094 54.3372 65.1909 54.3372 65.4154V66.3657C54.3372 66.5902 54.5186 66.7716 54.7431 66.7716Z" fill="white"/>
<path id="Vector_130" d="M53.8155 65.4154V66.3657C53.8155 66.5902 53.6327 66.7716 53.4082 66.7716H52.8639L52.9485 65.0094H53.4082C53.6341 65.0094 53.8155 65.1909 53.8155 65.4154Z" fill="white"/>
<path id="Vector_131" d="M60.4047 66.7716H64.9695C65.1939 66.7716 65.3754 66.5902 65.3754 66.3657V65.4154C65.3754 65.1909 65.1939 65.0094 64.9695 65.0094H60.4047C60.1802 65.0094 59.9987 65.1909 59.9987 65.4154V66.3657C59.9987 66.5902 60.1802 66.7716 60.4047 66.7716Z" fill="white"/>
<path id="Vector_132" d="M66.1967 66.7716H70.7615C70.986 66.7716 71.1674 66.5902 71.1674 66.3657V65.4154C71.1674 65.1909 70.986 65.0094 70.7615 65.0094H66.1967C65.9722 65.0094 65.7908 65.1909 65.7908 65.4154V66.3657C65.7908 66.5902 65.9722 66.7716 66.1967 66.7716Z" fill="white"/>
<path id="Vector_133" d="M71.9054 66.7716H76.4701C76.6946 66.7716 76.8761 66.5902 76.8761 66.3657V65.4154C76.8761 65.1909 76.6946 65.0094 76.4701 65.0094H71.9054C71.6809 65.0094 71.4994 65.1909 71.4994 65.4154V66.3657C71.4994 66.5902 71.6809 66.7716 71.9054 66.7716Z" fill="white"/>
<path id="Vector_134" d="M81.3495 66.7716H77.6947C77.4703 66.7716 77.2888 66.5902 77.2888 66.3657V65.4154C77.2888 65.1909 77.4703 65.0094 77.6947 65.0094H81.2635L81.3495 66.7716Z" fill="white"/>
<path id="Vector_135" d="M54.7431 71.3337H59.2326C59.4571 71.3337 59.6386 71.1523 59.6386 70.9278V69.9775C59.6386 69.753 59.4571 69.5715 59.2326 69.5715H54.7431C54.5186 69.5715 54.3372 69.753 54.3372 69.9775V70.9278C54.3372 71.1509 54.5186 71.3337 54.7431 71.3337Z" fill="white"/>
<path id="Vector_136" d="M53.8156 69.9761V70.9264C53.8156 71.1509 53.6328 71.3337 53.4083 71.3337H52.6421L52.7268 69.5702H53.4083C53.6341 69.5702 53.8156 69.753 53.8156 69.9761Z" fill="white"/>
<path id="Vector_137" d="M60.4047 71.3337H64.9695C65.1939 71.3337 65.3754 71.1523 65.3754 70.9278V69.9775C65.3754 69.753 65.1939 69.5715 64.9695 69.5715H60.4047C60.1802 69.5715 59.9987 69.753 59.9987 69.9775V70.9278C59.9987 71.1509 60.1802 71.3337 60.4047 71.3337Z" fill="white"/>
<path id="Vector_138" d="M66.1967 71.3337H70.7615C70.986 71.3337 71.1674 71.1523 71.1674 70.9278V69.9775C71.1674 69.753 70.986 69.5715 70.7615 69.5715H66.1967C65.9722 69.5715 65.7908 69.753 65.7908 69.9775V70.9278C65.7908 71.1509 65.9722 71.3337 66.1967 71.3337Z" fill="white"/>
<path id="Vector_139" d="M71.9054 71.3337H76.4701C76.6946 71.3337 76.8761 71.1523 76.8761 70.9278V69.9775C76.8761 69.753 76.6946 69.5715 76.4701 69.5715H71.9054C71.6809 69.5715 71.4994 69.753 71.4994 69.9775V70.9278C71.4994 71.1509 71.6809 71.3337 71.9054 71.3337Z" fill="white"/>
<path id="Vector_140" d="M81.5713 71.3337H77.6947C77.4703 71.3337 77.2888 71.1509 77.2888 70.9264V69.9761C77.2888 69.753 77.4703 69.5702 77.6947 69.5702H81.4866L81.5713 71.3337Z" fill="white"/>
<path id="Vector_141" d="M50.9929 72.2948V73.2075C50.9929 73.432 50.81 73.6134 50.5856 73.6134H46.1122C46.7533 73.0798 47.5464 72.7209 48.4268 72.612L50.9929 72.2948Z" fill="white"/>
<path id="Vector_142" d="M56.7136 72.2572V73.2075C56.7136 73.432 56.5321 73.6134 56.3076 73.6134H51.8181C51.5936 73.6134 51.4121 73.432 51.4121 73.2075V72.2572C51.4121 72.2518 51.4121 72.2478 51.4135 72.2424H51.4148L52.6044 72.0945L52.6179 71.8512H56.3076C56.5321 71.8512 56.7136 72.0327 56.7136 72.2572Z" fill="white"/>
<path id="Vector_143" d="M57.6424 73.6134H62.1319C62.3564 73.6134 62.5378 73.432 62.5378 73.2075V72.2572C62.5378 72.0327 62.3564 71.8512 62.1319 71.8512H57.6424C57.4179 71.8512 57.2364 72.0327 57.2364 72.2572V73.2075C57.2364 73.432 57.4179 73.6134 57.6424 73.6134Z" fill="white"/>
<path id="Vector_144" d="M63.3915 73.6134H67.881C68.1055 73.6134 68.2869 73.432 68.2869 73.2075V72.2572C68.2869 72.0327 68.1055 71.8512 67.881 71.8512H63.3915C63.167 71.8512 62.9855 72.0327 62.9855 72.2572V73.2075C62.9842 73.432 63.167 73.6134 63.3915 73.6134Z" fill="white"/>
<path id="Vector_145" d="M69.1203 73.6134H73.6098C73.8343 73.6134 74.0158 73.432 74.0158 73.2075V72.2572C74.0158 72.0327 73.8343 71.8512 73.6098 71.8512H69.1203C68.8958 71.8512 68.7144 72.0327 68.7144 72.2572V73.2075C68.7144 73.432 68.8958 73.6134 69.1203 73.6134Z" fill="white"/>
<path id="Vector_146" d="M74.8626 73.6134H79.3521C79.5766 73.6134 79.7581 73.432 79.7581 73.2075V72.2572C79.7581 72.0327 79.5766 71.8512 79.3521 71.8512H74.8626C74.6381 71.8512 74.4567 72.0327 74.4567 72.2572V73.2075C74.4567 73.432 74.6381 73.6134 74.8626 73.6134Z" fill="white"/>
<path id="Vector_147" d="M85.5608 72.5838V73.2075C85.5608 73.432 85.3793 73.6134 85.1549 73.6134H80.6667C80.4422 73.6134 80.2594 73.432 80.2594 73.2075V72.2572C80.2594 72.0327 80.4422 71.8512 80.6667 71.8512H81.5968L81.6089 72.0945L85.5608 72.5838Z" fill="white"/>
<path id="Vector_148" d="M88.1 73.6134H86.616C86.3915 73.6134 86.2087 73.432 86.2087 73.2075V72.686C86.9211 72.8419 87.565 73.1672 88.1 73.6134Z" fill="white"/>
<path id="Vector_149" d="M46.0974 78.1742H50.5869C50.8114 78.1742 50.9928 77.9927 50.9928 77.7683V76.8179C50.9928 76.5935 50.8114 76.412 50.5869 76.412H46.0974C45.8729 76.412 45.6914 76.5935 45.6914 76.8179V77.7683C45.6914 77.9927 45.8729 78.1742 46.0974 78.1742Z" fill="white"/>
<path id="Vector_150" d="M45.229 76.8179V77.7683C45.229 77.9927 45.0475 78.1742 44.8231 78.1742H44.4897V77.0666C44.4897 76.8448 44.5058 76.6257 44.5368 76.412H44.8231C45.0489 76.412 45.229 76.5935 45.229 76.8179Z" fill="white"/>
<path id="Vector_151" d="M51.8181 78.1742H56.3076C56.5321 78.1742 56.7136 77.9927 56.7136 77.7683V76.8179C56.7136 76.5935 56.5321 76.412 56.3076 76.412H51.8181C51.5936 76.412 51.4121 76.5935 51.4121 76.8179V77.7683C51.4121 77.9927 51.5936 78.1742 51.8181 78.1742Z" fill="white"/>
<path id="Vector_152" d="M57.6424 78.1742H62.1319C62.3564 78.1742 62.5378 77.9927 62.5378 77.7683V76.8179C62.5378 76.5935 62.3564 76.412 62.1319 76.412H57.6424C57.4179 76.412 57.2364 76.5935 57.2364 76.8179V77.7683C57.2364 77.9927 57.4179 78.1742 57.6424 78.1742Z" fill="white"/>
<path id="Vector_153" d="M63.3915 78.1742H67.881C68.1055 78.1742 68.2869 77.9927 68.2869 77.7683V76.8179C68.2869 76.5935 68.1055 76.412 67.881 76.412H63.3915C63.167 76.412 62.9855 76.5935 62.9855 76.8179V77.7683C62.9842 77.9927 63.167 78.1742 63.3915 78.1742Z" fill="white"/>
<path id="Vector_154" d="M69.1203 78.1742H73.6098C73.8343 78.1742 74.0158 77.9927 74.0158 77.7683V76.8179C74.0158 76.5935 73.8343 76.412 73.6098 76.412H69.1203C68.8958 76.412 68.7144 76.5935 68.7144 76.8179V77.7683C68.7144 77.9927 68.8958 78.1742 69.1203 78.1742Z" fill="white"/>
<path id="Vector_155" d="M74.8626 78.1742H79.3521C79.5766 78.1742 79.7581 77.9927 79.7581 77.7683V76.8179C79.7581 76.5935 79.5766 76.412 79.3521 76.412H74.8626C74.6381 76.412 74.4567 76.5935 74.4567 76.8179V77.7683C74.4567 77.9927 74.6381 78.1742 74.8626 78.1742Z" fill="white"/>
<path id="Vector_156" d="M80.6653 78.1742H85.1549C85.3793 78.1742 85.5608 77.9927 85.5608 77.7683V76.8179C85.5608 76.5935 85.3793 76.412 85.1549 76.412H80.6653C80.4409 76.412 80.2594 76.5935 80.2594 76.8179V77.7683C80.2594 77.9927 80.4409 78.1742 80.6653 78.1742Z" fill="white"/>
<path id="Vector_157" d="M89.7237 77.0666V78.1742H86.6173C86.3928 78.1742 86.21 77.9927 86.21 77.7683V76.8179C86.21 76.5935 86.3928 76.412 86.6173 76.412H89.6766C89.7075 76.6257 89.7237 76.8448 89.7237 77.0666Z" fill="white"/>
<path id="Vector_158" d="M54.7431 75.8945H59.2326C59.4571 75.8945 59.6386 75.713 59.6386 75.4886V74.5382C59.6386 74.3138 59.4571 74.1323 59.2326 74.1323H54.7431C54.5186 74.1323 54.3372 74.3138 54.3372 74.5382V75.4886C54.3372 75.713 54.5186 75.8945 54.7431 75.8945Z" fill="white"/>
<path id="Vector_159" d="M48.9201 75.8945H53.4096C53.6341 75.8945 53.8155 75.713 53.8155 75.4886V74.5382C53.8155 74.3138 53.6341 74.1323 53.4096 74.1323H48.9201C48.6956 74.1323 48.5141 74.3138 48.5141 74.5382V75.4886C48.5141 75.713 48.6956 75.8945 48.9201 75.8945Z" fill="white"/>
<path id="Vector_160" d="M48.0894 74.5382V75.4886C48.0894 75.713 47.908 75.8945 47.6835 75.8945H44.647C44.8231 75.2359 45.1471 74.6364 45.5826 74.1323H47.6835C47.908 74.1323 48.0894 74.3138 48.0894 74.5382Z" fill="white"/>
<path id="Vector_161" d="M60.4047 75.8945H64.9695C65.1939 75.8945 65.3754 75.713 65.3754 75.4886V74.5382C65.3754 74.3138 65.1939 74.1323 64.9695 74.1323H60.4047C60.1802 74.1323 59.9987 74.3138 59.9987 74.5382V75.4886C59.9987 75.713 60.1802 75.8945 60.4047 75.8945Z" fill="white"/>
<path id="Vector_162" d="M66.1967 75.8945H70.7615C70.986 75.8945 71.1674 75.713 71.1674 75.4886V74.5382C71.1674 74.3138 70.986 74.1323 70.7615 74.1323H66.1967C65.9722 74.1323 65.7908 74.3138 65.7908 74.5382V75.4886C65.7908 75.713 65.9722 75.8945 66.1967 75.8945Z" fill="white"/>
<path id="Vector_163" d="M71.9054 75.8945H76.4701C76.6946 75.8945 76.8761 75.713 76.8761 75.4886V74.5382C76.8761 74.3138 76.6946 74.1323 76.4701 74.1323H71.9054C71.6809 74.1323 71.4994 74.3138 71.4994 74.5382V75.4886C71.4994 75.713 71.6809 75.8945 71.9054 75.8945Z" fill="white"/>
<path id="Vector_164" d="M77.6934 75.8945H82.2245C82.449 75.8945 82.6305 75.713 82.6305 75.4886V74.5382C82.6305 74.3138 82.449 74.1323 82.2245 74.1323H77.6934C77.4689 74.1323 77.2874 74.3138 77.2874 74.5382V75.4886C77.2874 75.713 77.4689 75.8945 77.6934 75.8945Z" fill="white"/>
<path id="Vector_165" d="M83.4505 75.8945H88.0596C88.2841 75.8945 88.4656 75.713 88.4656 75.4886V74.5382C88.4656 74.3138 88.2841 74.1323 88.0596 74.1323H83.4505C83.226 74.1323 83.0445 74.3138 83.0445 74.5382V75.4886C83.0445 75.713 83.226 75.8945 83.4505 75.8945Z" fill="white"/>
<path id="Vector_166" d="M89.5678 75.8945H89.2681C89.0436 75.8945 88.8608 75.713 88.8608 75.4885V74.5382C88.8608 74.5033 88.8648 74.471 88.8742 74.4388C89.1888 74.8729 89.4253 75.3649 89.5678 75.8945Z" fill="white"/>
<path id="Vector_167" d="M54.7431 80.4553H59.2326C59.4571 80.4553 59.6386 80.2738 59.6386 80.0493V79.099C59.6386 78.8745 59.4571 78.6931 59.2326 78.6931H54.7431C54.5186 78.6931 54.3372 78.8745 54.3372 79.099V80.0493C54.3372 80.2738 54.5186 80.4553 54.7431 80.4553Z" fill="white"/>
<path id="Vector_168" d="M48.9201 80.4553H53.4096C53.6341 80.4553 53.8155 80.2738 53.8155 80.0493V79.099C53.8155 78.8745 53.6341 78.6931 53.4096 78.6931H48.9201C48.6956 78.6931 48.5141 78.8745 48.5141 79.099V80.0493C48.5141 80.2738 48.6956 80.4553 48.9201 80.4553Z" fill="white"/>
<path id="Vector_169" d="M48.0894 79.099V80.0493C48.0894 80.2738 47.908 80.4553 47.6835 80.4553H44.4911V78.6931H47.6835C47.908 78.6931 48.0894 78.8745 48.0894 79.099Z" fill="white"/>
<path id="Vector_170" d="M60.4047 80.4553H64.9695C65.1939 80.4553 65.3754 80.2738 65.3754 80.0493V79.099C65.3754 78.8745 65.1939 78.6931 64.9695 78.6931H60.4047C60.1802 78.6931 59.9987 78.8745 59.9987 79.099V80.0493C59.9987 80.2738 60.1802 80.4553 60.4047 80.4553Z" fill="white"/>
<path id="Vector_171" d="M66.1967 80.4553H70.7615C70.986 80.4553 71.1674 80.2738 71.1674 80.0493V79.099C71.1674 78.8745 70.986 78.6931 70.7615 78.6931H66.1967C65.9722 78.6931 65.7908 78.8745 65.7908 79.099V80.0493C65.7908 80.2738 65.9722 80.4553 66.1967 80.4553Z" fill="white"/>
<path id="Vector_172" d="M71.9054 80.4553H76.4701C76.6946 80.4553 76.8761 80.2738 76.8761 80.0493V79.099C76.8761 78.8745 76.6946 78.6931 76.4701 78.6931H71.9054C71.6809 78.6931 71.4994 78.8745 71.4994 79.099V80.0493C71.4994 80.2738 71.6809 80.4553 71.9054 80.4553Z" fill="white"/>
<path id="Vector_173" d="M77.6934 80.4553H82.2245C82.449 80.4553 82.6305 80.2738 82.6305 80.0493V79.099C82.6305 78.8745 82.449 78.6931 82.2245 78.6931H77.6934C77.4689 78.6931 77.2874 78.8745 77.2874 79.099V80.0493C77.2874 80.2738 77.4689 80.4553 77.6934 80.4553Z" fill="white"/>
<path id="Vector_174" d="M83.4505 80.4553H88.0596C88.2841 80.4553 88.4656 80.2738 88.4656 80.0493V79.099C88.4656 78.8745 88.2841 78.6931 88.0596 78.6931H83.4505C83.226 78.6931 83.0445 78.8745 83.0445 79.099V80.0493C83.0445 80.2738 83.226 80.4553 83.4505 80.4553Z" fill="white"/>
<path id="Vector_175" d="M89.7237 78.6931V80.4553H89.2681C89.0436 80.4553 88.8608 80.2738 88.8608 80.0493V79.099C88.8608 78.8745 89.0436 78.6931 89.2681 78.6931H89.7237Z" fill="white"/>
<path id="Vector_176" d="M46.0974 82.7363H50.5869C50.8114 82.7363 50.9928 82.5549 50.9928 82.3304V81.3801C50.9928 81.1556 50.8114 80.9741 50.5869 80.9741H46.0974C45.8729 80.9741 45.6914 81.1556 45.6914 81.3801V82.3304C45.6914 82.5535 45.8729 82.7363 46.0974 82.7363Z" fill="white"/>
<path id="Vector_177" d="M45.229 81.38V82.3304C45.229 82.5535 45.0475 82.7363 44.8231 82.7363H44.4897V80.9728H44.8231C45.0489 80.9728 45.229 81.1556 45.229 81.38Z" fill="white"/>
<path id="Vector_178" d="M51.8181 82.7363H56.3076C56.5321 82.7363 56.7136 82.5549 56.7136 82.3304V81.3801C56.7136 81.1556 56.5321 80.9741 56.3076 80.9741H51.8181C51.5936 80.9741 51.4121 81.1556 51.4121 81.3801V82.3304C51.4121 82.5535 51.5936 82.7363 51.8181 82.7363Z" fill="white"/>
<path id="Vector_179" d="M57.6424 82.7363H62.1319C62.3564 82.7363 62.5378 82.5549 62.5378 82.3304V81.3801C62.5378 81.1556 62.3564 80.9741 62.1319 80.9741H57.6424C57.4179 80.9741 57.2364 81.1556 57.2364 81.3801V82.3304C57.2364 82.5535 57.4179 82.7363 57.6424 82.7363Z" fill="white"/>
<path id="Vector_180" d="M63.3915 82.7363H67.881C68.1055 82.7363 68.2869 82.5549 68.2869 82.3304V81.3801C68.2869 81.1556 68.1055 80.9741 67.881 80.9741H63.3915C63.167 80.9741 62.9855 81.1556 62.9855 81.3801V82.3304C62.9842 82.5535 63.167 82.7363 63.3915 82.7363Z" fill="white"/>
<path id="Vector_181" d="M69.1203 82.7363H73.6098C73.8343 82.7363 74.0158 82.5549 74.0158 82.3304V81.3801C74.0158 81.1556 73.8343 80.9741 73.6098 80.9741H69.1203C68.8958 80.9741 68.7144 81.1556 68.7144 81.3801V82.3304C68.7144 82.5535 68.8958 82.7363 69.1203 82.7363Z" fill="white"/>
<path id="Vector_182" d="M74.8626 82.7363H79.3521C79.5766 82.7363 79.7581 82.5549 79.7581 82.3304V81.3801C79.7581 81.1556 79.5766 80.9741 79.3521 80.9741H74.8626C74.6381 80.9741 74.4567 81.1556 74.4567 81.3801V82.3304C74.4567 82.5535 74.6381 82.7363 74.8626 82.7363Z" fill="white"/>
<path id="Vector_183" d="M80.6653 82.7363H85.1549C85.3793 82.7363 85.5608 82.5549 85.5608 82.3304V81.3801C85.5608 81.1556 85.3793 80.9741 85.1549 80.9741H80.6653C80.4409 80.9741 80.2594 81.1556 80.2594 81.3801V82.3304C80.2594 82.5535 80.4409 82.7363 80.6653 82.7363Z" fill="white"/>
<path id="Vector_184" d="M89.7237 80.9728V82.7363H86.6173C86.3928 82.7363 86.21 82.5535 86.21 82.3304V81.38C86.21 81.1556 86.3928 80.9728 86.6173 80.9728H89.7237Z" fill="white"/>
<path id="Vector_185" d="M59.6372 83.6598V84.0213H54.3358V83.6598C54.3358 83.4353 54.5172 83.2538 54.7417 83.2538H59.2312C59.4571 83.2538 59.6372 83.4353 59.6372 83.6598Z" fill="white"/>
<path id="Vector_186" d="M53.8155 83.6598V84.0213H48.5141V83.6598C48.5141 83.4353 48.6956 83.2538 48.9201 83.2538H53.4083C53.6341 83.2538 53.8155 83.4353 53.8155 83.6598Z" fill="white"/>
<path id="Vector_187" d="M48.0894 83.6598V84.0213H44.4911V83.2538H47.6835C47.908 83.2538 48.0894 83.4353 48.0894 83.6598Z" fill="white"/>
<path id="Vector_188" d="M65.3754 83.6598V84.0213H59.9974V83.6598C59.9974 83.4353 60.1802 83.2538 60.4033 83.2538H64.9681C65.1939 83.2538 65.3754 83.4353 65.3754 83.6598Z" fill="white"/>
<path id="Vector_189" d="M71.1688 83.6598V84.0213H65.7908V83.6598C65.7908 83.4353 65.9736 83.2538 66.1967 83.2538H70.7615C70.986 83.2538 71.1688 83.4353 71.1688 83.6598Z" fill="white"/>
<path id="Vector_190" d="M76.8762 83.6598V84.0213H71.4981V83.6598C71.4981 83.4353 71.681 83.2538 71.9054 83.2538H76.4702C76.6947 83.2538 76.8762 83.4353 76.8762 83.6598Z" fill="white"/>
<path id="Vector_191" d="M82.6305 83.6598V84.0213H77.2874V83.6598C77.2874 83.4353 77.4689 83.2538 77.6934 83.2538H82.2232C82.449 83.2538 82.6305 83.4353 82.6305 83.6598Z" fill="white"/>
<path id="Vector_192" d="M88.4669 83.6598V84.0213H83.0445V83.6598C83.0445 83.4353 83.2273 83.2538 83.4518 83.2538H88.061C88.2841 83.2538 88.4669 83.4353 88.4669 83.6598Z" fill="white"/>
<path id="Vector_193" d="M89.7237 83.2538V84.0213H88.8608V83.6598C88.8608 83.4353 89.0436 83.2538 89.2681 83.2538H89.7237Z" fill="white"/>
</g>
</g>
<path id="Vector_194" d="M66.8513 18.9192L64.2893 21.094C63.9989 21.34 63.8094 21.6855 63.757 22.0632L63.4425 24.3362C63.3887 24.7273 63.1562 25.0701 62.8134 25.2663L55.8385 29.2545C55.1019 29.6752 54.6314 30.4427 54.5911 31.2896L52.6044 72.0959L48.4281 72.612C46.1793 72.8903 44.4897 74.8017 44.4897 77.0666V84.0213H89.7237V77.0666C89.7237 74.8003 88.0354 72.8903 85.7852 72.612L81.6089 72.0959L79.6222 31.2896C79.5806 30.4427 79.1101 29.6752 78.3748 29.2545L71.3999 25.2663C71.0572 25.0701 70.8246 24.7273 70.7709 24.3362L70.4563 22.0632C70.4039 21.6855 70.2144 21.3414 69.924 21.094L67.3621 18.9192C67.2142 18.7942 66.9991 18.7942 66.8513 18.9192Z" stroke="#ADACA6" stroke-width="2" stroke-miterlimit="10" stroke-linecap="round" stroke-linejoin="round"/>
<g id="Group_19">
<path id="Vector_195" d="M39.5135 116.345C37.551 116.345 36.2002 114.967 36.2002 113.104V113.086C36.2002 111.295 37.5954 109.828 39.5041 109.828C40.6386 109.828 41.3228 110.135 41.9801 110.692L41.1064 111.746C40.6198 111.342 40.1883 111.106 39.4584 111.106C38.4503 111.106 37.6492 111.998 37.6492 113.069V113.086C37.6492 114.238 38.4409 115.085 39.5579 115.085C40.062 115.085 40.5123 114.959 40.8631 114.707V113.807H39.4678V112.609H42.2046V115.346C41.5567 115.894 40.6655 116.345 39.5135 116.345Z" fill="white"/>
<path id="Vector_196" d="M43.5191 116.236V114.796H44.9775V116.237H43.5191V116.236Z" fill="white"/>
<path id="Vector_197" d="M49.4697 116.236H46.4722V109.934H49.3985C50.6862 109.934 51.4779 110.573 51.4779 111.563V111.581C51.4779 112.292 51.1002 112.688 50.6499 112.94C51.3784 113.219 51.8287 113.642 51.8287 114.488V114.506C51.8287 115.66 50.8918 116.236 49.4697 116.236ZM50.1001 111.799C50.1001 111.385 49.7762 111.151 49.1915 111.151H47.8231V112.483H49.1014C49.713 112.483 50.1001 112.285 50.1001 111.816V111.799ZM50.451 114.319C50.451 113.896 50.1364 113.635 49.4254 113.635H47.8231V115.021H49.4711C50.0827 115.021 50.4523 114.804 50.4523 114.336V114.319H50.451Z" fill="white"/>
<path id="Vector_198" d="M57.8426 116.236L57.2659 114.823H54.6018L54.0251 116.236H52.6124L55.3128 109.89H56.5911L59.2916 116.236H57.8426ZM55.9338 111.555L55.0964 113.598H56.7713L55.9338 111.555Z" fill="white"/>
<path id="Vector_199" d="M64.8645 116.236L61.8132 112.23V116.236H60.4449V109.934H61.7232L64.6763 113.814V109.934H66.0447V116.236H64.8645Z" fill="white"/>
<path id="Vector_200" d="M72.4268 116.236L71.8502 114.823H69.186L68.6094 116.236H67.1967L69.8971 109.89H71.1754L73.8759 116.236H72.4268ZM70.5181 111.555L69.6807 113.598H71.3555L70.5181 111.555Z" fill="white"/>
<path id="Vector_201" d="M79.5389 116.236L78.9622 114.823H76.2981L75.7214 116.236H74.3087L77.0091 109.89H78.2874L80.9879 116.236H79.5389ZM77.6315 111.555L76.7941 113.598H78.4689L77.6315 111.555Z" fill="white"/>
<path id="Vector_202" d="M84.5996 116.236H82.1424V109.934H84.5996C86.5795 109.934 87.9479 111.293 87.9479 113.068V113.085C87.9479 114.859 86.5795 116.236 84.5996 116.236ZM86.4989 113.085C86.4989 111.969 85.7341 111.186 84.5996 111.186H83.5283V114.984H84.5996C85.7341 114.984 86.4989 114.22 86.4989 113.102V113.085Z" fill="white"/>
<path id="Vector_203" d="M89.4252 116.236V109.934H90.8111V116.236H89.4252Z" fill="white"/>
<path id="Vector_204" d="M96.392 116.236L95.0425 114.22H93.9537V116.236H92.5678V109.934H95.4484C96.9337 109.934 97.8249 110.718 97.8249 112.014V112.031C97.8249 113.049 97.2765 113.687 96.474 113.984L98.0131 116.234H96.392V116.236ZM96.4189 112.086C96.4189 111.492 96.0049 111.186 95.3301 111.186H93.9523V112.995H95.357C96.0318 112.995 96.4189 112.635 96.4189 112.104V112.086Z" fill="white"/>
</g>
</g>
</svg>
